<svg id="Layer_1" enable-background="new 0 0 70 70" height="512" viewBox="0 0 70 70" width="512" xmlns="http://www.w3.org/2000/svg"><g fill="rgb(0,0,0)"><path d="m65.5 66.1h-6.5v-11.1c0-1.7-1.1-3.2-2.7-3.8l-6.4-2.1v7.3c.9.3 1.6 1.1 1.6 2.2v7.4h-1.5v-7.4c0-.4-.3-.7-.7-.7h-.9v-9.2l-3.6-1.2v10.4h-19.6v-10.4l-3.6 1.2v9.2h-.9c-.4 0-.7.3-.7.7v7.4h-1.5v-7.4c0-1 .7-1.9 1.6-2.2v-7.3l-6.4 2.1c-1.6.5-2.7 2-2.7 3.8v11.1h-6.5c-.4 0-.8.3-.8.8s.3.8.8.8h61.1c.4 0 .8-.3.8-.8s-.4-.8-.9-.8z"/><path d="m17.2 47.5h.2l.9-.3c.4-.1.6-.6.5-.9-.1-.4-.5-.6-.9-.5l-.9.2c-.4.1-.6.6-.5.9.1.4.4.6.7.6z"/><path d="m7.7 58.7c.4 0 .8-.3.8-.8v-2.9c0-2.8 1.8-5.3 4.4-6.1l.3-.1c.4-.1.6-.6.5-.9-.1-.4-.5-.6-.9-.5l-.3.1c-3.3 1-5.5 4.1-5.5 7.5v2.9c0 .4.3.8.7.8z"/><path d="m47.8 41.5c-.2.3-.4.5-.6.8-.3.3-.2.8.1 1.1.1.1.3.2.5.2s.4-.1.6-.3c.2-.3.4-.6.6-.8.2-.3.2-.8-.2-1-.3-.4-.8-.3-1 0z"/><path d="m50.4 35.6c-.2 1.2-.6 2.3-1.1 3.4-.2.4 0 .8.4 1 .1 0 .2.1.3.1.3 0 .6-.2.7-.4.6-1.2 1-2.4 1.3-3.7.1-.4-.2-.8-.6-.9-.5-.1-.9.1-1 .5z"/><path d="m47.2 6.3c.1.1.2.2.3.3 1.7 1.7 3 3.6 3.9 5.8.1.3.4.5.7.5.1 0 .2 0 .3-.1.4-.2.6-.6.4-1-1-2.3-2.4-4.5-4.2-6.3-.1-.1-.3-.3-.4-.4l-.2-.1c-.3-.3-.8-.3-1.1 0s-.3.8 0 1.1z"/><path d="m43.9 3.8c.3.1.5.3.8.5.1.1.3.1.4.1.2 0 .5-.1.6-.3.2-.3.1-.8-.2-1s-.5-.3-.8-.5c-.4-.2-.8-.1-1 .3-.2.3-.1.7.2.9z"/><path d="m33.4 13.3h3.2c.5 0 .9-.4 1-.8l1.3-8.5c.1-.6-.4-1.1-1-1.1h-5.9c-.6 0-1.1.5-1 1.1l1.4 8.5c.1.4.5.8 1 .8z"/><path d="m45 8.7c-1 1.1-1.7 2.5-1.7 4.1 0 3.2 2.6 5.9 5.9 5.9h.3c-.1-3.8-1.7-7.2-4.2-9.7-.1-.2-.2-.2-.3-.3z"/><path d="m26.7 12.8c0-1.6-.6-3-1.7-4.1-2.7 2.5-4.4 6-4.5 9.9h.3c3.2 0 5.9-2.6 5.9-5.8z"/><path d="m17.9 28.7c0 2.3 1.7 4.2 3.9 4.6.3 4.1 2.4 7.9 6.1 10.3v3.2l-1.2.2v9.4h16.6v-9.4l-1.2-.4v-3.2c3.4-2.2 5.8-6 6.1-10.3 2.2-.3 3.9-2.3 3.9-4.6 0-1.3-.5-2.4-1.4-3.3 0-.1.1-.2.1-.3v-2.6c0-.4-.3-.7-.7-.7h-.6v-1.8c-.1 0-.3 0-.3 0-4.1 0-7.4-3.3-7.4-7.4 0-1.9.7-3.7 2-5.1-1.1-.9-2.4-1.6-3.7-2.1l-1.1 7c-.2 1.2-1.2 2.1-2.5 2.1h-3.2c-1.2 0-2.3-.9-2.5-2.1l-1.1-7c-1.3.5-2.6 1.2-3.7 2.1 1.3 1.4 2 3.2 2 5.1 0 4.1-3.3 7.4-7.4 7.4-.1 0-.2 0-.3 0v1.7h-.6c-.4 0-.7.3-.7.7v2.6c0 .1 0 .2.1.3-.7 1.1-1.2 2.3-1.2 3.6zm1.5 0c0-1.3.8-2.4 1.9-2.9h.5v5.9c-1.4-.3-2.4-1.6-2.4-3zm21.2 15.6v2.6c-3.2 3-8.1 3-11.3 0v-2.6c1.7.8 3.7 1.3 5.6 1.3 2.1 0 4.1-.5 5.7-1.3zm.2-1.8c-7.7 4.4-17.6-1.1-17.6-10.2v-6.6h23.5v6.6c0 4.4-2.3 8.2-5.9 10.2zm7.4-10.8v-5.9h.5c1.1.5 1.9 1.6 1.9 2.9 0 1.4-1 2.7-2.4 3z"/><path d="m39.3 29.4c-.3.3-.3.8 0 1.1.1.1.3.2.5.2s.4-.1.5-.2c.6-.6 1.6-.6 2.2 0 .3.3.8.3 1.1 0s.3-.8 0-1.1c-1.2-1.1-3.2-1.1-4.3 0z"/><path d="m26.4 29.4c-.3.3-.3.8 0 1.1.1.1.3.2.5.2s.4-.1.5-.2c.6-.6 1.6-.6 2.2 0 .3.3.8.3 1.1 0s.3-.8 0-1.1c-1.1-1.1-3.1-1.1-4.3 0z"/><path d="m36.6 37.2c-.9.9-2.3.9-3.2 0-.3-.3-.8-.3-1.1 0s-.3.8 0 1.1c.7.7 1.7 1.1 2.7 1.1s2-.4 2.7-1.1c.3-.3.3-.8 0-1.1s-.8-.3-1.1 0z"/><path d="m35 34.8c.4 0 .8-.3.8-.8v-2.4c0-.4-.3-.8-.8-.8s-.8.3-.8.8v2.4c0 .4.4.8.8.8z"/></g></svg>