<svg id="Layer_1" enable-background="new 0 0 70 70" height="512" viewBox="0 0 70 70" width="512" xmlns="http://www.w3.org/2000/svg"><g fill="rgb(0,0,0)"><path d="m16.7 28.1c.2 0 .4-.1.5-.2.2-.2.4-.4.6-.7.3-.3.3-.8 0-1.1s-.8-.3-1.1 0c-.2.2-.4.4-.6.7-.3.3-.3.8 0 1.1.2.1.4.2.6.2z"/><path d="m13.5 38.9h.2c.4-.1.7-.5.6-.9-.6-2.6-.3-5.2.9-7.4.1-.2.2-.4.3-.5.2-.4.1-.8-.2-1-.4-.2-.8-.1-1 .2-.1.2-.2.4-.4.6-1.3 2.5-1.7 5.5-1 8.4-.1.4.3.6.6.6z"/><path d="m61 56.2c0 .4.3.8.8.8s.8-.3.8-.8c0-3.9-1.5-7.6-4.2-10.4-.3-.3-.8-.3-1.1 0s-.3.8 0 1.1c2.3 2.5 3.7 5.8 3.7 9.3z"/><path d="m54.2 44.6c.2.1.5.3.7.4.1.1.3.1.4.1.2 0 .5-.1.6-.3.2-.3.1-.8-.2-1s-.5-.3-.8-.5c-.4-.2-.8-.1-1 .3-.2.3-.1.8.3 1z"/><path d="m21.4 27.6c0 .1 0 .3.1.4-1.2 1.4-2.6 2.6-3.5 4.2-1.4 2.5-.9 5.8.8 8 .9 1.3 2.3 2.4 3.8 3 .6.3 1.3.4 1.9.6l1.9-2.1c.4-.4.9-.7 1.5-.8v1.5c-.1 0-.2.1-.3.2l-2.6 2.8c-.3.4-.4 1-.1 1.4l4.5 7.4c.3.6 1.1.7 1.6.3l4-3-5.8-7.9v-4.2c1.7 1.2 3.7 1.9 5.8 1.9s4-.7 5.8-1.9v4.2l-5.8 7.9 4 3c.5.4 1.3.3 1.6-.3l4.5-7.4c.3-.5.2-1-.1-1.4l-2.4-2.8c-.1-.1-.2-.2-.3-.2v-1.5c.6.1 1.1.3 1.5.8l1.9 2.1c.6-.1 1.3-.3 1.9-.6 1.5-.6 2.8-1.7 3.8-3 1.7-2.3 2.1-5.5.8-8-.9-1.6-2.4-2.8-3.5-4.2 0-.1 0-.3.1-.4.2-1.5-.1-2.9-.8-3.7 0 0-.1-.1-.1-.1.8-1.9 1.3-4 1.3-6.3 0-7.9-5.5-14.4-12.3-14.4-.4 0-.7 0-1.1.1-.9-.2-1.7-.3-2.7-.3-6.8 0-12.3 6.4-12.3 14.4 0 2.5.6 4.9 1.5 6.9-.7.8-1 2.1-.9 3.4zm3.7 3c-.1-.3-.4-.6-.7-.6 0 0 0 0-.1 0-.5 0-1.3-1-1.4-2.6-.1-1.3.2-2.2.5-2.6.1-.1.2-.2.4-.2.4 0 .8-.3.8-.7.1-.5.1-.9.2-1.4 5.6-.4 10.2-4.6 11-10.2 4.8.5 8.8 5.2 9.5 11.6 0 .4.5.7.9.7.1 0 .3.1.4.2.3.4.6 1.3.5 2.6-.2 1.6-1 2.6-1.4 2.6s-.7.2-.8.5c-1.5 5.4-5.5 9.1-9.9 9.1s-8.4-3.6-9.9-9z"/><path d="m64 65.6h-6.3v-9.4c0-5.6-4.5-10.2-10.1-10.2h-.8c0 .5-.1 1.1-.4 1.5l-4.5 7.5c-.5.8-1.3 1.3-2.2 1.3-.6 0-1.1-.2-1.6-.5l-3.1-2.4-3.1 2.3c-.5.3-1 .5-1.6.5-.9 0-1.8-.5-2.2-1.3l-4.5-7.4c-.3-.5-.4-1-.4-1.5h-.8c-5.6 0-10.1 4.5-10.1 10.2v9.4h-6.3c-.4 0-.8.3-.8.8s.3.8.8.8h58c.4 0 .8-.3.8-.8s-.4-.8-.8-.8zm-21-6.9c0-.4.3-.7.7-.7h8.1c.4 0 .7.3.7.7v2.1c0 .4-.3.7-.7.7h-8.1c-.4 0-.7-.3-.7-.7zm-27.5-3.3c0-.4.3-.8.8-.8s.7.4.7.8v.8c0 .4-.3.8-.8.8s-.8-.3-.8-.8v-.8zm0 3.3c0-.4.3-.8.8-.8s.8.3.8.8v4.9c0 .4-.3.8-.8.8s-.8-.3-.8-.8z"/><path d="m36 33.6c-.5.5-1.4.5-2 0-.3-.3-.8-.3-1.1 0s-.3.8 0 1.1c.6.6 1.3.8 2 .8s1.5-.3 2-.8c.3-.3.3-.8 0-1.1-.1-.3-.6-.3-.9 0z"/><path d="m35 31.2c.4 0 .8-.3.8-.8v-1.8c0-.4-.3-.8-.8-.8s-.8.3-.8.8v1.8c0 .5.4.8.8.8z"/><path d="m41.7 25.3c-.9-.9-2.4-.9-3.4 0-.3.3-.3.8 0 1.1s.8.3 1.1 0 .9-.3 1.3 0c.1.1.3.2.5.2s.4-.1.5-.2c.3-.3.3-.8 0-1.1z"/><path d="m30 24.6c-.6 0-1.2.3-1.7.7-.3.3-.3.8 0 1.1s.8.3 1.1 0c.2-.2.4-.3.6-.3.2 0 .5.1.6.3.1.1.3.2.5.2s.4-.1.5-.2c.3-.3.3-.8 0-1.1-.3-.5-.9-.7-1.6-.7z"/></g></svg>