<svg id="Layer_1" enable-background="new 0 0 70 70" height="512" viewBox="0 0 70 70" width="512" xmlns="http://www.w3.org/2000/svg"><g fill="rgb(0,0,0)"><path d="m65.5 64.7h-7.3v-11c0-1.4-.9-2.6-2.2-3-10.7-3.4-8.2-2.6-8.6-2.8-1.7 2.2-5.8 6.2-12.4 6.2-.4 0-.8 0-1.2 0v10.7h-1.5v-10.9c-4.4-.7-7.1-3.2-9.7-6-.9.3 3.2-1-8.7 2.8-1.3.4-2.2 1.7-2.2 3v11.1h-7.2c-.4 0-.8.3-.8.8 0 .4.3.8.8.8h61.1c.4 0 .8-.3.8-.8-.1-.5-.5-.9-.9-.9zm-29.7-9h.5c.4 0 .8.3.8.7s-.3.8-.8.8h-.5c-.4 0-.8-.3-.8-.8 0-.4.4-.7.8-.7zm0 3.3h.5c.4 0 .8.3.8.8 0 .4-.3.8-.8.8h-.5c-.4 0-.8-.3-.8-.8s.4-.8.8-.8zm0 3.2h.5c.4 0 .8.3.8.8 0 .4-.3.8-.8.8h-.5c-.4 0-.8-.3-.8-.8 0-.4.4-.8.8-.8zm-20.8-7.9c0-.4.3-.8.8-.8.4 0 .8.3.8.8v3.3c0 .4-.3.8-.8.8-.4 0-.8-.3-.8-.8zm0 6.5c0-.4.3-.8.8-.8.4 0 .8.3.8.8v.7c0 .4-.3.8-.8.8-.4 0-.8-.3-.8-.8z"/><path d="m54.4 46.7 2.6.8c2.7.9 4.5 3.4 4.5 6.1v2.9c0 .4.3.8.8.8s.7-.3.7-.7v-2.9c0-3.4-2.2-6.5-5.5-7.6l-2.6-.8c-.4-.1-.8.1-.9.5-.2.4 0 .8.4.9z"/><path d="m49.9 43.7c-.4-.1-.8.1-.9.5s.1.8.5.9l1.2.4c.4.1.8-.1.9-.5s-.1-.8-.5-.9z"/><path d="m20 36c-.4.1-.6.5-.5.9.4 1.4 1.1 2.8 1.9 4 .2.3.7.4 1 .2s.4-.7.2-1c-.6-1.1-1.2-2.3-1.6-3.6-.1-.4-.6-.6-1-.5z"/><path d="m24.6 42.5c-.1-.1-.2-.2-.3-.4-.3-.3-.8-.3-1.1 0s-.3.8 0 1.1l.4.4c.3.3.8.3 1.1 0 .2-.4.2-.8-.1-1.1z"/><path d="m28.1 31.3c.2 0 .4-.1.5-.2.5-.5 1.3-.5 1.8 0 .3.3.8.3 1.1 0s.3-.8 0-1.1c-1.1-1.1-2.8-1.1-3.9 0-.3.3-.3.8 0 1.1.1.1.3.2.5.2z"/><path d="m39 31.3c.2 0 .4-.1.5-.2.5-.5 1.3-.5 1.8 0 .3.3.8.3 1.1 0s.3-.8 0-1.1c-1.1-1.1-2.8-1.1-3.9 0-.3.3-.3.8 0 1.1.1.1.3.2.5.2z"/><path d="m35 39.6c.9 0 1.8-.3 2.5-1 .3-.3.3-.8 0-1.1s-.8-.3-1.1 0c-.8.8-2.1.8-3 0-.3-.3-.8-.3-1.1 0s-.3.8 0 1.1c.9.6 1.8 1 2.7 1z"/><path d="m35 35.4c.4 0 .8-.3.8-.8v-1.8c0-.4-.3-.8-.8-.8s-.8.3-.8.8v1.8c0 .5.4.8.8.8z"/><path d="m33 48.4v4.1c.6.1 1.3.1 1.9.1.7 0 1.3 0 2-.1v-4.1c-.6.1-1.3.2-2 .2-.6 0-1.2-.1-1.9-.2z"/><path d="m23.3 22.7-1.5 3c-1 .6-1.7 1.7-1.7 3 0 1.7 1.2 3.1 2.8 3.5 0 4 1.9 7.5 5 9.8v4.2c-1.3.4-3.6 1.2-3.7 1.2.9 1 3.3 3.7 7.4 4.8v-4.3c-.8-.3-1.5-.8-2.2-1.3v-3.6c3.5 1.6 7.8 1.6 11.3 0v3.6c-.7.5-1.4 1-2.2 1.3v4.3c4.1-1.1 6.6-3.8 7.4-4.8-.2-.1-2.5-.8-3.7-1.2v-4.2c3-2.2 5-5.8 5-9.8 1.6-.3 2.8-1.8 2.8-3.5 0-1.3-.7-2.4-1.7-3l-1.5-3c3.5-.2 6.4-3 6.5-6.5v-.1c0-4.1-3.3-7.4-7.4-7.4-1.1 0-2.1.2-3 .7-1.1-3.2-4.2-5.5-7.7-5.5-3.6 0-6.6 2.3-7.7 5.5-.9-.4-2-.7-3.1-.7-4.1 0-7.4 3.3-7.4 7.4v.7c.1 3.3 3 5.7 6.3 5.9zm22.4 9.4c0 9.7-11.8 14.1-18.2 7.5-2-2-3.1-4.7-3.1-7.5v-6.2h21.4v6.2zm-.1-20.2h.2c2.3 0 4.2 1.9 4.2 4.2v.5c0 .4-.4.7-.7.7h-.1c-.4-.1-.7-.4-.7-.8 0-.1 0-.2 0-.3 0-1.5-1.2-2.7-2.7-2.7h-.1c-.4 0-.8-.3-.8-.7 0-.6.3-.9.7-.9zm-13.5-4c.9-.6 1.8-.9 2.9-.9 2.1 0 4 1.3 4.7 3.3.1.4-.1.8-.5 1-.1 0-.2 0-.2 0-.3 0-.6-.2-.7-.5-.5-1.4-1.8-2.3-3.3-2.3-.7 0-1.4.2-2 .6-.3.2-.8.2-1.1-.2-.2-.3-.1-.7.2-1zm-7.9 4c.4 0 .8.3.8.8 0 .4-.3.8-.8.8-1.5 0-2.7 1.2-2.7 2.7 0 .4-.3.8-.8.8-.4 0-.8-.3-.8-.8.1-2.4 2-4.3 4.3-4.3z"/></g></svg>