<svg id="Layer_1" enable-background="new 0 0 70 70" height="512" viewBox="0 0 70 70" width="512" xmlns="http://www.w3.org/2000/svg"><g fill="rgb(0,0,0)"><path d="m65.5 61.1h-7.3v-6.7c-3 0-5.5 2.5-5.5 5.5 0 .4.1.8.1 1.2h-1.5c-.1-.4-.1-.8-.1-1.2 0-3.9 3.1-7 7-7v-2.9c0-1.2-.6-2.2-1.7-2.8l-.3 1c-.3.9-1.1 1.4-2 1.4-.2 0-.5 0-.7-.1l-5.9-2c-1.1-.4-1.7-1.5-1.3-2.7l.3-1c-.4-.1-.8-.3-1.3-.4 0 .3-.1.5-.2.8l-3.1 5.6c-.6 1-1.9 1.4-2.9.7l-.5-.3-.4.4 2 6.5c.2.8.1 1.7-.4 2.3l-1.3 1.6h-1.9l2-2.6c.2-.3.3-.6.2-1l-2.2-7.3.8-.8-2.4-1.4-2.3 1.7.7.7-2.2 7.3c-.1.3 0 .7.2 1l2 2.5h-1.9l-1.3-1.6c-.5-.7-.7-1.5-.4-2.3l2-6.5-.2-.2-.2.1c-1 .7-2.3.4-2.9-.6l-3.5-5.6c-.2-.2-.3-.5-.3-.8l-1.4.4.3 1c.4 1.1-.2 2.3-1.3 2.7l-5.9 2c-1 .4-2.3-.2-2.6-1.3l-.3-1c-1 .5-1.7 1.6-1.7 2.8v2.9c3.9 0 7 3.1 7 7 0 .4 0 .8-.1 1.2h-1.5c.1-.4.1-.8.1-1.2 0-3-2.5-5.5-5.5-5.5v6.7h-7.3c-.4 0-.8.3-.8.8s.3.8.8.8h61.1c.4 0 .8-.3.8-.8s-.4-1-.9-1z"/><path d="m62.3 55.5c-.4 0-.8.3-.8.8v1.3c0 .4.3.8.8.8s.7-.4.7-.8v-1.3c0-.4-.3-.8-.7-.8z"/><path d="m57 43.9c2.7.9 4.5 3.4 4.5 6.1v2.7c0 .4.3.8.8.8s.8-.3.8-.8v-2.7c0-3.4-2.2-6.5-5.5-7.6-.4-.1-.8.1-.9.5-.3.4-.1.9.3 1z"/><path d="m21.3 36.3c.2.3.7.5 1 .2.4-.2.5-.7.2-1-.8-1.3-1.5-2.8-1.8-4.3-.1-.4-.5-.6-.9-.6-.4.1-.6.5-.6.9.5 1.8 1.2 3.4 2.1 4.8z"/><path d="m23.3 37.7c-.3.3-.3.8 0 1.1.1.1.2.2.3.3.3.3.8.3 1.1 0s.3-.8 0-1.1c-.1-.1-.2-.2-.3-.3-.4-.3-.8-.3-1.1 0z"/><path d="m28.1 26.4c.2 0 .4-.1.5-.2.5-.5 1.3-.5 1.8 0 .3.3.8.3 1.1 0s.3-.8 0-1.1c-1.1-1.1-2.8-1.1-3.9 0-.3.3-.3.8 0 1.1.1.1.3.2.5.2z"/><path d="m39 26.4c.2 0 .4-.1.5-.2.5-.5 1.3-.5 1.8 0 .3.3.8.3 1.1 0s.3-.8 0-1.1c-1.1-1.1-2.8-1.1-3.9 0-.3.3-.3.8 0 1.1.1.1.3.2.5.2z"/><path d="m35 34.2c1 0 1.9-.4 2.5-1.1.3-.3.3-.8 0-1.1s-.8-.3-1.1 0c-.8.8-2.2.8-3 0-.3-.3-.8-.3-1.1 0s-.3.8 0 1.1c.8.7 1.7 1.1 2.7 1.1z"/><path d="m35 30.5c.4 0 .8-.3.8-.7v-1.8c0-.4-.3-.8-.8-.8s-.8.3-.8.8v1.8c0 .4.4.7.8.7z"/><path d="m48.5 43.4-.7 2c-.1.3.1.6.4.8l5.9 2c.3.1.6-.1.8-.4l.7-2c.1-.3-.1-.6-.4-.8l-5.9-2c-.4 0-.7.1-.8.4z"/><path d="m15.1 47.8c.1.3.4.5.8.4l5.9-2c.3-.1.5-.4.4-.8l-.7-2c-.1-.3-.4-.5-.8-.4l-5.9 2c-.3.1-.5.4-.4.8z"/><path d="m47.3 19.4c1.5-1.9 2.4-4.1 2.4-6.2 0-5.6-6.5-5.8-14.6-5.8s-14.6.2-14.6 5.8c0 2 .8 4.1 2.3 6v.1c-1.6.3-2.8 1.8-2.8 3.5s1.2 3.1 2.8 3.5v1.4c0 3.8 1.7 7.4 5 9.8v3.9l-1.6 1.5c-.2.2-.2.5-.1.7l3.5 5.6c.2.3.5.3.8.1l4.6-3.3-5.6-4.7v-2.9c1.7.9 3.6 1.4 5.6 1.4s4-.5 5.7-1.4v2.9l-5.7 4.7 5 3.4c.3.2.6.1.8-.2l3.1-5.6c.1-.2.1-.5-.1-.7l-1.6-1.5v-3.9c3-2.2 5-5.8 5-9.8v-1.4c1.6-.3 2.8-1.8 2.8-3.5 0-1.6-1.1-3-2.7-3.4zm-5.9-8.6h.5c.4 0 .7.4.7.8s-.4.7-.7.7h-.1-.5c-.4 0-.7-.4-.7-.8s.4-.7.8-.7zm-6.2-.2c1.3 0 2.3 1.4 2.3 3.1s-1 3.2-2.3 3.2-2.3-1.4-2.3-3.2 1-3.1 2.3-3.1zm10.5 17.1c0 5.9-4.8 10.7-10.7 10.7s-10.7-4.8-10.7-10.7v-7.1c3.1 1.9 6.8 3 10.7 3s7.5-1.1 10.7-3zm-.2-11.3c-.2.4-.7.5-1 .3-.4-.2-.5-.7-.3-1 .5-.9.8-1.7.8-2.4v-.1c-.1 0-.3-.1-.8-.3-.4-.1-.6-.5-.5-.9s.5-.6.9-.5c1.5.4 1.9.8 1.9 1.9 0 .8-.3 1.9-1 3z"/></g></svg>