<svg id="Layer_1" enable-background="new 0 0 70 70" height="512" viewBox="0 0 70 70" width="512" xmlns="http://www.w3.org/2000/svg"><g fill="rgb(0,0,0)"><path d="m65.5 65.9h-6.5v-11.4c0-3.7-2-6.8-5-8.5v4.1c.9.2 1.6.9 1.6 1.9v2.3c0 .9-.7 1.7-1.6 1.9v9.8h-1.5v-11.4h1.2c.2 0 .4-.2.4-.4v-2.3c0-.2-.2-.4-.4-.4h-1.2v-6.3c-1-.4-2.2-.6-3.3-.6h-.6v6.8h-1.2c-.2 0-.4.2-.4.4v2.3c0 .2.2.4.4.4h1.2v2.7c0 1.2-1 2.1-2.1 2.1h-21.6c-1.2 0-2.1-1-2.1-2.1v-2.7h1.2c.2 0 .4-.2.4-.4v-2.3c0-.2-.2-.4-.4-.4h-1.2v-6.8h-.6c-1.2 0-2.3.2-3.3.6v6.3h-1.2c-.2 0-.4.2-.4.4v2.3c0 .2.2.4.4.4h1.2v11.2h-1.5v-9.8c-.9-.1-1.6-.9-1.6-1.9v-2.3c0-.9.7-1.7 1.6-1.9v-3.9c-3 1.7-5 4.8-5 8.5v11.4h-8c-.4 0-.8.3-.8.8s.3.8.8.8h61.1c.4 0 .8-.3.8-.8s-.3-.8-.8-.8z"/><path d="m8.5 58.1c.4 0 .8-.3.8-.8v-2.9c0-2.2.6-4.4 1.7-6.4.2-.4.1-.8-.3-1s-.8-.1-1 .3c-1.2 2.2-1.9 4.6-1.9 7.1v2.9c-.1.5.3.8.7.8z"/><path d="m8.5 61.7c.4 0 .8-.3.8-.8v-.8c0-.4-.3-.8-.8-.8s-.8.3-.8.8v.8c0 .5.4.8.8.8z"/><path d="m47.2 50v-5.4h-1.4v.5c0 5.5-4.5 10-10 10s-10-4.5-10-10v-.5h-1.4v5.4c.9.1 1.6.9 1.6 1.9v2.3c0 1-.7 1.7-1.6 1.9v1.2c0 .3.3.6.6.6h21.7c.3 0 .6-.3.6-.6v-1.2c-.9-.1-1.6-.9-1.6-1.9v-2.3c-.1-.9.6-1.7 1.5-1.9z"/><path d="m48 39.5c-.1.2-.2.3-.4.5-.3.3-.2.8.1 1 .1.1.3.2.5.2s.5-.1.6-.3.3-.4.4-.6c.2-.3.1-.8-.2-1s-.8-.2-1 .2z"/><path d="m50.5 32.3c-.1 1.7-.6 3.3-1.3 4.9-.2.4 0 .8.4 1 .1 0 .2.1.3.1.3 0 .6-.2.7-.4.8-1.7 1.2-3.5 1.4-5.4 0-.4-.3-.8-.7-.8-.4-.1-.7.2-.8.6z"/><path d="m49 17.8-1.4-13.9c-.1-.9-1.1-1.5-1.9-1.1l-9.2 4.2c-.5.2-1 .2-1.5 0l-9.2-4.3c-.8-.3-1.8.2-1.9 1.2l-1.4 13.9c8.8 2.7 17.7 2.7 26.5 0zm-21.4-2.9c0 .4-.4.7-.7.7h-.1c-.4 0-.7-.4-.7-.8l.1-.6c0-.4.4-.7.8-.7s.7.4.7.8zm6.4-3.9c-.2.4-.6.5-1 .4l-4.9-2.3-.3 2.6c0 .4-.4.7-.7.7h-.1c-.4 0-.7-.4-.7-.8l.4-3.6c0-.2.2-.5.4-.6s.5-.1.7 0l5.8 2.7c.4.1.6.5.4.9z"/><path d="m21.1 23.1c.3.1.5.1.8.2-.8.7-1.4 1.7-1.4 2.8 0 1.7 1.2 3.2 2.8 3.5v1.4c0 5 2.9 9.2 7.1 11.1v2.4h-3.3v.5c0 4.7 3.8 8.5 8.5 8.5s8.5-3.8 8.5-8.5v-.5h-3.1v-2.5c4.2-2 7-6.2 7-11.1v-1.4c1.6-.4 2.9-1.8 2.9-3.5 0-1.1-.5-2.1-1.4-2.8.3-.1.5-.1.8-.2 1.1-.3 1.7-1.5 1.3-2.6-.3-1.1-1.5-1.7-2.6-1.3-8.9 2.8-17.8 2.8-26.7 0-1.1-.3-2.2.3-2.6 1.3-.2 1.2.4 2.4 1.4 2.7zm18.4 22.2c0 2.1-1.7 3.8-3.8 3.8s-3.8-1.7-3.8-3.8v-.6-1.8c2.3.7 5 .8 7.6 0 0 .1 0 2.5 0 2.4zm-14.6-21.1c7.1 1.6 14.4 1.7 21.7 0v6.9c0 6.3-5.4 11.4-12 10.8-5.4-.5-9.7-5.1-9.7-10.8z"/><path d="m35.7 38.3c.8 0 1.6-.3 2.2-.9.3-.3.3-.8 0-1.1s-.8-.3-1.1 0c-.6.6-1.7.6-2.3 0-.3-.3-.8-.3-1.1 0s-.3.8 0 1.1c.7.6 1.5.9 2.3.9z"/><path d="m35.7 33.9c.4 0 .8-.3.8-.8v-1.6c0-.4-.3-.8-.8-.8s-.7.4-.7.8v1.6c0 .5.3.8.7.8z"/><path d="m39.4 30.5c.2 0 .4-.1.5-.2.7-.7 1.7-.7 2.4 0 .3.3.8.3 1.1 0s.3-.8 0-1.1c-1.2-1.2-3.3-1.2-4.5 0-.3.3-.3.8 0 1.1.1.1.3.2.5.2z"/><path d="m28.7 30.5c.2 0 .4-.1.5-.2.7-.7 1.7-.7 2.4 0 .3.3.8.3 1.1 0s.3-.8 0-1.1c-1.2-1.2-3.3-1.2-4.5 0-.3.3-.3.8 0 1.1.1.1.3.2.5.2z"/></g></svg>