<svg id="Layer_1" enable-background="new 0 0 70 70" height="512" viewBox="0 0 70 70" width="512" xmlns="http://www.w3.org/2000/svg"><g fill="rgb(0,0,0)"><path d="m6.3 57.9c.4 0 .8-.3.8-.8v-3c0-2.9 1.8-5.4 4.6-6.3l1.1-.3c.4-.1.6-.5.5-.9s-.6-.6-.9-.5l-1.1.3c-3.3 1.1-5.6 4.2-5.6 7.7v3c-.1.5.2.8.6.8z"/><path d="m65.9 66c.2-.3.3-.6.3-.9v-19.2c0-.9-.7-1.6-1.5-1.6h-15c-.9 0-1.5.7-1.5 1.6v19.3c0 .3.1.6.2.8h-1.6c-.1-.3-.1-.5-.1-.8v-17.7l-.7-.2c0 .3-.1.5-.2.7l-3.4 6c-.4.6-1 1.1-1.8 1.1-.4 0-.8-.1-1.1-.4l-.6-.4-.5.5 2.1 6.9c.2.8.1 1.7-.4 2.4l-1.5 1.8h-1.9l2.2-2.7c.2-.3.3-.7.2-1l-2.4-7.8.9-.9-2.6-1.8-2.5 1.8.8.8-2.4 7.8c-.1.4 0 .7.2 1l2.2 2.7h-1.9l-1.4-1.7c-.5-.6-.7-1.5-.5-2.4l2.1-6.9-.3-.3-.3.2c-.3.3-.8.4-1.2.4-.7 0-1.4-.4-1.7-1l-3.8-6c-.1-.2-.3-.5-.3-.8l-3.3 1-8.1 2.6c-1.4.5-2.4 1.8-2.4 3.2v11.8h-5.7c-.4 0-.8.3-.8.8s.3.8.8.8h61.1c.4 0 .8-.3.8-.8-.1-.3-.3-.5-.5-.7zm-13.9-18.1h10.3v3.4h-10.3zm1.3 15.7h-.9c-.4 0-.8-.3-.8-.8s.3-.8.8-.8h.9c.4 0 .8.3.8.8s-.4.8-.8.8zm0-3.8h-.9c-.4 0-.8-.3-.8-.8s.3-.8.8-.8h.9c.4 0 .8.3.8.8s-.4.8-.8.8zm0-3.8h-.9c-.4 0-.8-.3-.8-.8s.3-.8.8-.8h.9c.4 0 .8.3.8.8s-.4.8-.8.8zm4.3 7.6h-.9c-.4 0-.8-.3-.8-.8s.3-.8.8-.8h.9c.4 0 .8.3.8.8s-.4.8-.8.8zm0-3.8h-.9c-.4 0-.8-.3-.8-.8s.3-.8.8-.8h.9c.4 0 .8.3.8.8s-.4.8-.8.8zm0-3.8h-.9c-.4 0-.8-.3-.8-.8s.3-.8.8-.8h.9c.4 0 .8.3.8.8s-.4.8-.8.8zm4.3 7.6h-.9c-.4 0-.8-.3-.8-.8s.3-.8.8-.8h.9c.4 0 .8.3.8.8s-.4.8-.8.8zm0-3.8h-.9c-.4 0-.8-.3-.8-.8s.3-.8.8-.8h.9c.4 0 .8.3.8.8s-.4.8-.8.8zm0-3.8h-.9c-.4 0-.8-.3-.8-.8s.3-.8.8-.8h.9c.4 0 .8.3.8.8s-.4.8-.8.8z"/><path d="m15.5 46.5h.2l1.9-.6c.4-.1.6-.5.5-.9s-.5-.6-.9-.5l-1.9.6c-.4.1-.6.5-.5.9.1.3.4.5.7.5z"/><path d="m22.4 32.1c.5 3.5 2.3 6.6 5.1 8.6v4.3l-1.8 1.7c-.2.2-.2.4-.1.7l3.8 6c.2.3.5.3.8.2l4.9-3.6 5.3 3.6c.3.2.6.1.8-.2l3.3-6c.1-.2.1-.5-.1-.6l-1.9-1.8v-4.3c2.7-2 4.6-5.1 5.1-8.6 3-.3 5.4-2.9 5.4-6 0-1.4-.5-2.7-1.3-3.7v-7.3c0-4.4-2.8-8.3-7-9.8l-6.3-2.2c-2.2-.8-4.7-.8-6.9 0l-6.3 2.2c-4.2 1.5-6.9 5.4-6.9 9.8v7.3c-.8 1-1.3 2.3-1.3 3.7 0 3.2 2.4 5.7 5.4 6zm25.3-10.4c2.1.4 3.7 2.2 3.7 4.4s-1.6 4.1-3.7 4.4zm-6.7 23.2-6 5-6-5v-3.3c1.6.9 3.9 1.5 6 1.5s4.3-.6 6-1.5zm5.2-14.4c0 6.2-5.1 11.2-11.2 11.2s-11.2-5-11.2-11.2v-7.2l1.7 1.3c.1.1.1.1.2.1 0 .2-.1.5-.1.7 0 2.1 1.7 3.8 3.8 3.8s3.8-1.7 3.8-3.8c0-.2 0-.5-.1-.7 1.2-.8 2.4-.8 3.7.1 0 .2-.1.4-.1.6 0 2.1 1.7 3.8 3.8 3.8s3.8-1.7 3.8-3.8c0-.2 0-.4-.1-.6.1 0 .2-.1.3-.1l1.6-1.2v7zm-4.9-15.7c.5 3 2.1 6 4.9 6.5v.2l-2.4 1.8c-.7-1.1-1.8-1.8-3.2-1.8-1.3 0-2.5.7-3.2 1.7-1.6-.9-3.2-1-4.8 0-.7-1-1.8-1.7-3.1-1.7s-2.4.7-3.1 1.7l-2.5-1.9c.1-.4-.3-2 .9-3 .9-.7 2.2-.9 3.1-.9.7 0 1.2.1 1.2.1h.1 5.8c3.1.1 5.2-1.4 6.3-2.7zm-9.2-7.6.8-.3c.4-.1.8.1.9.5s-.1.8-.5 1l-.8.3c-.4.1-.8-.1-1-.5 0-.4.2-.9.6-1zm-8.8 4.5c.8-1.2 1.9-2.1 3.3-2.6l2.9-1c.4-.1.8.1 1 .5.1.4-.1.8-.5 1l-2.9 1c-1 .4-1.9 1.1-2.5 2-.2.4-.7.4-1 .2-.4-.3-.5-.7-.3-1.1zm-1 10v8.8c-2.1-.4-3.7-2.2-3.7-4.4-.1-2.2 1.6-4 3.7-4.4z"/><path d="m36.6 34.6c-.9.9-2.3.9-3.2 0-.3-.3-.8-.3-1.1 0s-.3.8 0 1.1c.7.7 1.7 1.1 2.7 1.1s1.9-.4 2.7-1.1c.3-.3.3-.8 0-1.1s-.8-.3-1.1 0z"/><path d="m35 32.9c.4 0 .8-.3.8-.8v-1.9c0-.4-.3-.8-.8-.8s-.8.3-.8.8v1.9c0 .4.4.8.8.8z"/><path d="m56.4 41.6h6c.4 0 .8-.3.8-.8s-.3-.8-.8-.8h-6c-.4 0-.8.3-.8.8s.4.8.8.8z"/><path d="m51.6 40.9c0 .4.3.8.8.8h.6c.4 0 .8-.3.8-.8s-.3-.8-.8-.8h-.7c-.3 0-.7.3-.7.8z"/></g></svg>