<svg id="Layer_1" enable-background="new 0 0 70 70" height="512" viewBox="0 0 70 70" width="512" xmlns="http://www.w3.org/2000/svg"><g fill="rgb(0,0,0)"><path d="m65.5 65.3h-5.8v-11.8c0-1.5-1-2.8-2.4-3.2l-10.7-3.4v5c0 1.7-1.8 2.8-3.3 2.1l-5-2.5c-.7.6-1.5 1.1-2.5 1.3v12.6h-1.5v-12.7c-1-.2-1.8-.6-2.5-1.3l-5 2.5c-1.6.8-3.3-.4-3.3-2.1v-5l-10.7 3.4c-1.4.5-2.4 1.8-2.4 3.2v11.8h-5.9c-.4 0-.8.3-.8.8s.3.8.8.8h61.1c.4 0 .8-.3.8-.8s-.4-.7-.9-.7zm-18.7-9.5h8.3v3h-8.3zm-16.3-2.1c.9 0 1.7.7 1.7 1.7 0 .9-.8 1.7-1.7 1.7s-1.7-.8-1.7-1.7c0-1 .8-1.7 1.7-1.7zm0 6.6c.9 0 1.7.7 1.7 1.7 0 .9-.8 1.7-1.7 1.7s-1.7-.8-1.7-1.7.8-1.7 1.7-1.7z"/><path d="m6.3 58.9c.4 0 .8-.3.8-.8v-4.6c0-.4-.3-.8-.8-.8s-.8.3-.8.8v4.6c.1.5.4.8.8.8z"/><path d="m6.3 62.7c.4 0 .8-.3.8-.8v-.8c0-.4-.3-.8-.8-.8s-.8.3-.8.8v.9c.1.4.4.7.8.7z"/><path d="m54.2 45.9 4.1 1.3c2.8.9 4.7 3.5 4.7 6.3v4.4c0 .4.3.8.8.8s.8-.3.8-.8v-4.4c0-3.5-2.3-6.6-5.7-7.8l-4.1-1.3c-.4-.1-.8.1-.9.5-.3.5-.1.9.3 1z"/><path d="m49.9 43.8c-.1.4.1.8.5.9l1.1.3h.2c.3 0 .6-.2.7-.5.1-.4-.1-.8-.5-.9l-1.1-.3c-.4-.2-.8.1-.9.5z"/><path d="m50.8 24c.1 0 .1 0 0 0 .1.1.1.1 0 0l.1-4.9c0-8.8-7.1-15.9-15.9-15.9-4.4 0-8.4 1.8-11.3 4.7s-4.7 6.9-4.7 11.3v5c-.4.7-.7 1.5-.7 2.4 0 2.4 1.7 4.3 4 4.6.4 3.7 2.3 6.9 5.1 8.9v4.3l-1.4-.7c-.5-.3-1.2.1-1.2.7v7.5c0 .6.6 1 1.2.7l4.8-2.4c-.3-.6-.5-1.3-.5-2.1s.2-1.5.5-2.1l-1.8-.9v-4.1c2.5 1.4 5.8 1.9 8.9 1.2 1.9-.5 2.2-.7 3.2-1.2v4.1l-1.9 1c.3.6.5 1.3.5 2.1s-.2 1.4-.5 2.1l4.8 2.4c.5.3 1.2-.1 1.2-.7v-7.5c0-.6-.6-1-1.2-.7l-1.4.7v-4.3c2.8-2.1 4.8-5.3 5.1-8.9 2.2-.3 4-2.2 4-4.6-.1-1.1-.4-2-.9-2.7zm-23.3-15.1c1.6-1.2 3.4-1.9 5.3-2.3.4-.1.8.2.9.6s-.2.8-.6.9c-1.7.3-3.3 1-4.6 2-.3.2-.8.2-1-.2-.4-.3-.3-.8 0-1zm-2.8 2.8c.2-.3.4-.5.6-.7.3-.3.7-.4 1.1-.1.3.3.4.7.1 1.1-.2.2-.3.4-.5.7s-.7.4-1 .2c-.4-.4-.5-.9-.3-1.2zm21.5 18.1c0 6.5-5.8 12.3-13.5 11-5.2-1.1-8.9-5.7-8.9-11v-7.8c0-1 .5-2 1.3-2.6.6-.5 1.3-.7 2.1-.7.3 0 .6 0 .8.1 4.7 1.2 9.4 1.2 14.1 0 .7-.2 1.5-.1 2.1.1.4.2.8.4 1.1.7.6.6 1 1.5 1 2.4v7.8z"/><path d="m20.3 33.6c-.1-.4-.5-.6-.9-.5s-.6.5-.5.9c.2 1 .6 1.9 1 2.8.2.4.6.5 1 .4.4-.2.5-.6.4-1-.5-.8-.8-1.7-1-2.6z"/><path d="m21.9 40.2c.3.3.7.4 1.1.1.3-.3.4-.7.1-1.1-.2-.2-.3-.5-.5-.7-.2-.3-.7-.4-1-.2s-.4.7-.2 1c.1.3.3.6.5.9z"/><path d="m36.5 33.4c-.8.8-2.1.8-2.9 0-.3-.3-.8-.3-1.1 0s-.3.8 0 1.1c.7.7 1.6 1 2.5 1s1.8-.3 2.5-1c.3-.3.3-.8 0-1.1s-.7-.3-1 0z"/><path d="m35 31.5c.4 0 .8-.3.8-.8v-2.1c0-.4-.3-.8-.8-.8s-.8.3-.8.8v2.1c0 .5.4.8.8.8z"/><path d="m31.9 48.1c0 1.7 1.4 3.1 3.1 3.1s3.1-1.4 3.1-3.1-1.4-3.1-3.1-3.1-3.1 1.4-3.1 3.1z"/><path d="m38.4 25.3c-.3.3-.3.8 0 1.1.1.1.3.2.5.2s.4-.1.5-.2c.7-.7 2.1-.7 2.8 0 .3.3.8.3 1.1 0s.3-.8 0-1.1c-1.3-1.3-3.6-1.3-4.9 0z"/><path d="m26.7 25.3c-.3.3-.3.8 0 1.1.1.1.3.2.5.2s.4-.1.5-.2c.7-.7 2.1-.7 2.8 0 .3.3.8.3 1.1 0s.3-.8 0-1.1c-1.3-1.3-3.6-1.3-4.9 0z"/></g></svg>