<svg id="Layer_1" enable-background="new 0 0 70 70" height="512" viewBox="0 0 70 70" width="512" xmlns="http://www.w3.org/2000/svg"><g fill="rgb(0,0,0)"><path d="m19.6 45.7c-.1-.4-.5-.6-.9-.5l-1 .3c-.4.1-.6.5-.5.9s.5.6.9.5l1-.3c.4 0 .6-.5.5-.9z"/><path d="m7.7 58.9c.4 0 .8-.3.8-.8v-3.3c0-2.8 1.8-5.3 4.5-6.1l2-.7c.4-.1.6-.6.5-.9s-.5-.6-.9-.5l-2.1.7c-3.3 1-5.5 4.1-5.5 7.5v3.3c0 .5.3.8.7.8z"/><path d="m47.2 44.3c.3-.3.5-.5.7-.8.3-.3.2-.8-.1-1.1s-.8-.2-1.1.1c-.2.2-.4.5-.7.7-.3.3-.3.8 0 1.1.4.3.9.3 1.2 0z"/><path d="m50.4 35.6c-.4 1.8-1.1 3.6-2.2 5.1-.2.3-.1.8.2 1s.8.1 1-.2c1.1-1.7 1.9-3.6 2.4-5.6.1-.4-.2-.8-.6-.9-.3 0-.8.2-.8.6z"/><path d="m21.5 7.4c.4-.4.8-.9 1.2-1.3.3-.3.3-.8 0-1.1s-.8-.3-1.1 0c-.5.4-.9.9-1.3 1.4-.3.3-.2.8.1 1.1.4.2.9.2 1.1-.1z"/><path d="m16.5 17.5c.4.1.8-.2.8-.7.3-2.5 1.1-4.8 2.4-7 .2-.4.1-.8-.3-1s-.8-.1-1 .3c-1.4 2.3-2.3 4.9-2.6 7.6 0 .4.3.7.7.8z"/><path d="m20.8 19.9c-.1 0-.2 0-.3 0v1.5h-.6c-.4 0-.7.3-.7.7v2.6c0 .4.3.7.7.7h.4c-1 .7-1.6 1.8-1.6 3.1 0 1.9 1.4 3.5 3.1 3.8 0 4.5 2.3 8.6 6.1 11v3.2l-.9.3 8 10.2 8-10.2-.9-.3v-3.2c3.6-2.3 6-6.4 6.1-11 1.8-.3 3.1-1.9 3.1-3.8 0-1.3-.6-2.4-1.6-3.1h.4c.4 0 .7-.3.7-.7v-2.6c0-.4-.3-.7-.7-.7h-.6v-1.5c-.1 0-.3 0-.3 0-4.1 0-7.4-3.3-7.4-7.4 0-1.9.7-3.7 2-5.1-1.1-.9-2.4-1.6-3.7-2.1l-1.1 7c-.2 1.2-1.2 2.1-2.5 2.1h-3.2c-1.2 0-2.3-.9-2.5-2.1l-1.1-7c-1.3.5-2.6 1.2-3.7 2.1 1.3 1.4 2 3.2 2 5.1.2 4.1-3.1 7.4-7.2 7.4zm19.8 26.8c-3.1 3-8.1 3-11.3 0v-2.6c1.6.8 3.6 1.3 5.6 1.3s4-.5 5.6-1.3v2.6zm6.1-21.4v6.8c0 4.3-2.4 8.1-5.9 10.2-7.7 4.4-17.6-1.1-17.6-10.2v-6.8z"/><path d="m33.4 13.1h3.2c.5 0 .9-.4 1-.8l1.4-8.5c.1-.6-.4-1.1-1-1.1h-5.9c-.6 0-1.1.5-1 1.1l1.4 8.5c0 .4.4.8.9.8z"/><path d="m49.2 18.4h.3c-.1-3.8-1.7-7.2-4.2-9.7-.1-.1-.2-.2-.3-.3-1 1.1-1.7 2.5-1.7 4.1 0 3.3 2.7 5.9 5.9 5.9z"/><path d="m20.8 18.4c3.2 0 5.9-2.6 5.9-5.9 0-1.6-.6-3-1.7-4.1-2.7 2.5-4.4 6-4.5 9.9.1.1.2.1.3.1z"/><path d="m49.3 60.2h-13.5v2.1h13.5c0-.1 0-2.2 0-2.1z"/><path d="m49.3 48.8-4.8-1.5-8.7 11.1v.3h13.5z"/><path d="m34.3 58.4-8.8-11.1-4.8 1.5v9.9h13.6z"/><path d="m20.7 60.2c0 .1 0 2.2 0 2.1h13.5v-2.1z"/><path d="m19.2 49.3-5.5 1.8c-1.6.5-2.7 2-2.7 3.8v5.7h8.2c0-1.6 0-8.9 0-11.3z"/><path d="m50.8 60.5h8.2v-5.7c0-1.7-1.1-3.2-2.7-3.8l-5.5-1.8z"/><path d="m65.5 65.9h-6.5v-3.9h-8.2c0 .4 0 4 0 3.9h-1.5v-2.1h-13.5v2.1h-1.5v-2.1h-13.6v2.1h-1.5v-3.9h-8.2v3.9h-6.5c-.4 0-.8.3-.8.8 0 .4.3.8.8.8h61.1c.4 0 .8-.3.8-.8-.1-.5-.4-.8-.9-.8z"/><path d="m26.8 29.2c.2 0 .4-.1.5-.2.8-.8 2.1-.8 2.8 0 .3.3.8.3 1.1 0s.3-.8 0-1.1c-1.4-1.3-3.6-1.3-5 0-.3.3-.3.8 0 1.1.2.2.4.2.6.2z"/><path d="m39.3 29.2c.2 0 .4-.1.5-.2.8-.8 2.1-.8 2.8 0 .3.3.8.3 1.1 0s.3-.8 0-1.1c-1.4-1.3-3.6-1.3-5 0-.3.3-.3.8 0 1.1.2.2.4.2.6.2z"/><path d="m35 33.4c.8 0 1.6-.3 2.2-.9.3-.3.3-.8 0-1.1s-.8-.3-1.1 0c-.6.6-1.7.6-2.3 0-.3-.3-.8-.3-1.1 0s-.3.8 0 1.1c.7.6 1.5.9 2.3.9z"/><path d="m38.7 35.8c-2.5 1-4.9 1-7.4 0-.2-.1-.5.1-.4.3.3 2 2 3.6 4.1 3.6s3.9-1.6 4.1-3.6c.1-.2-.2-.4-.4-.3z"/></g></svg>