<svg id="Layer_1" enable-background="new 0 0 70 70" height="512" viewBox="0 0 70 70" width="512" xmlns="http://www.w3.org/2000/svg"><g fill="rgb(0,0,0)"><path d="m64.7 65.9h-8v-10.4c0-2.3-1.5-4.3-3.7-4.9l-.7-.2v15.5h-1.5v-15.9l-4.2-1.2v17.1h-1.6v-17.6l-.6-.2c-.7 4.6-4.7 8-9.4 8-4.8 0-8.7-3.5-9.4-8l-.6.2v17.5h-1.5v-17l-4.2 1.2v15.9h-1.5v-15.5l-.7.2c-2.2.6-3.7 2.6-3.7 4.9v10.4h-8.1c-.4 0-.8.3-.8.8s.3.8.8.8h59.3c.4 0 .8-.3.8-.8s-.3-.8-.7-.8zm-22.9-9.8c0-.4.3-.8.8-.8.4 0 .8.3.8.8v3.3c0 .4-.3.8-.8.8-.4 0-.8-.3-.8-.8zm0 5.9c0-.4.3-.8.8-.8.4 0 .8.3.8.8v1.1c0 .4-.3.8-.8.8-.4 0-.8-.3-.8-.8z"/><path d="m20.8 44.6-.9.3c-.4.1-.6.5-.5.9.1.3.4.5.7.5h.2l.9-.3c.4-.1.6-.5.5-.9s-.5-.6-.9-.5z"/><path d="m9.4 56.3c.4 0 .8-.3.8-.8 0-3.7 2.5-7 6-8l1.2-.3c.4-.1.6-.5.5-.9s-.5-.6-.9-.5l-1.2.2c-4.2 1.2-7.1 5.1-7.1 9.5-.1.4.3.8.7.8z"/><path d="m17.1 26h4.4c-.8.6-1.4 1.6-1.4 2.8 0 1.7 1.2 3.1 2.8 3.4 0 4.9 3 9 7 10.8v3.6.2l-2.9.8c.5 3.9 3.8 6.9 7.9 6.9s7.4-3 7.9-6.9l-2.8-.7c0-.1 0-.2 0-.2v-3.6c4.1-1.9 7-6 7-10.8 1.6-.3 2.8-1.7 2.8-3.4 0-1.1-.5-2.1-1.4-2.8h4.5c.6 0 .9-.8.4-1.2l-4.1-3h-28.4l-4.1 3c-.5.3-.2 1.1.4 1.1zm21.4 20.7c0 1.9-1.6 3.5-3.5 3.5-2 0-3.5-1.6-3.5-3.5v-3c2.4.7 5.2.6 7.1 0v3zm7-14.6c0 5-3.6 9.8-9.5 10.5-1 .1-2.1 0-3.1-.2-4.8-1-8.5-5.2-8.5-10.3v-6.1h21.1z"/><path d="m46.8 5.9c-.3-1.9-1.9-3.3-3.9-3.3h-15.8c-1.9 0-3.6 1.4-3.9 3.3l-2.2 14.5h28zm-20.2 9.4c-.1.5-.5.7-.9.6s-.7-.5-.6-.9l.1-.7c.1-.4.4-.7.8-.6s.7.4.6.9zm8.4-7.9h-6.4c-.5 0-.9.4-1 .9l-.5 3.3c-.1.4-.4.6-.7.6h-.1c-.4-.1-.7-.5-.6-.9l.5-3.3c.2-1.2 1.2-2.1 2.5-2.1h6.3c.4 0 .8.3.8.8 0 .3-.4.7-.8.7z"/><path d="m31.2 34c-1.9 0-3.4 1.5-3.4 3.4h3.7c1.4 0 2.5-.8 3-2h.3.3c.5 1.2 1.7 2 3 2h3.7c0-1.9-1.5-3.4-3.4-3.4h-1.1c.3-.5.5-1.1.5-1.7 0-.4-.3-.8-.8-.8s-.8.3-.8.8c0 .9-.7 1.6-1.6 1.6s-1.6-.7-1.6-1.6c0-.4-.3-.8-.8-.8-.4 0-.8.3-.8.8 0 .6.2 1.2.5 1.7z"/><path d="m32.9 38.7c.4.7 1.2 1.1 2.1 1.1s1.6-.4 2.1-1.1c-.8-.2-1.5-.6-2.1-1.2-.6.6-1.3 1-2.1 1.2z"/><path d="m28.5 30.6c.4-.4 1.2-.4 1.6 0 .1.1.3.2.5.2s.4-.1.5-.2c.3-.3.3-.8 0-1.1-1-1-2.8-1-3.8 0-.3.3-.3.8 0 1.1.5.3.9.3 1.2 0z"/><path d="m40 30.6c.4-.4 1.2-.4 1.6 0 .1.1.3.2.5.2s.4-.1.5-.2c.3-.3.3-.8 0-1.1-1-1-2.8-1-3.8 0-.3.3-.3.8 0 1.1.5.3.9.3 1.2 0z"/></g></svg>