<svg id="Layer_1" enable-background="new 0 0 70 70" height="512" viewBox="0 0 70 70" width="512" xmlns="http://www.w3.org/2000/svg"><g fill="rgb(0,0,0)"><path d="m60.1 46.3-5.6-3c-.4-.2-.8-.1-1 .3s-.1.8.3 1l5.6 3c2.4 1.3 3.9 3.8 3.9 6.5 0 .4.3.8.8.8s.8-.3.8-.8c-.1-3.2-1.9-6.2-4.8-7.8z"/><path d="m49.9 40.8c-.4-.2-.8-.1-1 .3s-.1.8.3 1l1.2.6c.1.1.2.1.4.1.3 0 .5-.1.7-.4.2-.4.1-.8-.3-1z"/><path d="m50 20.7.2.2v-12.4c0-3.3-2.6-5.9-5.9-5.9h-13.9c-1.4 0-2.7.6-3.6 1.5s-1.5 2.2-1.6 3.6c-3.2 0-5.9 2.6-5.9 5.9v7.7c-.5.7-.8 1.6-.8 2.5 0 2.3 1.7 4.2 3.9 4.6v.1c0 4.2 2 7.9 5.2 10.1v3.3s-.1-.1-.1-.1c-1.6.2-2.7 1-3.8 2.2-.1.1-.2.3-.1.5 1.4 2.9 3.5 5.4 6.2 7.5.2.2.6.1.7-.2.4-1.3 1.6-4.3 4.4-4.9-2.2-.9-4.2-2-5.7-3.4v-3.9c.3.2 1.3.6 1.4.6 1.4.5 2.8.8 4.3.8 1.6 0 4-.5 5.6-1.3h.1v3.9c-1.6 1.4-3.5 2.5-5.7 3.4 2.9.6 4 3.6 4.4 4.9.1.3.4.4.7.2 2.7-2.1 4.8-4.5 6.2-7.5.1-.2 0-.4-.1-.5-1.1-1.2-2.2-1.9-3.9-2.2 0 0-.1.1-.1.1v-3.3c3.1-2.3 5.2-5.9 5.2-10.1v-.1c2.2-.4 3.9-2.3 3.9-4.6 0-1.3-.5-2.3-1.2-3.2zm-14.4-14.8h.6c.4 0 .8.3.8.8 0 .4-.3.8-.8.8h-.6c-.4 0-.8-.3-.8-.8.1-.5.4-.8.8-.8zm10.1 22.6c0 6-4.9 10.9-10.9 10.9s-10.9-4.9-10.9-10.9v-10.3c3.5 2.1 6.4.8 9.5-.5 3.5-1.5 7.1-3 12.3-.5zm.4-19.2c-.4 0-.8-.3-.8-.8 0-.6-.5-1.1-1.1-1.1h-5c-.4 0-.8-.3-.8-.8 0-.4.3-.8.8-.8h5c1.5 0 2.6 1.2 2.6 2.6.1.5-.2.9-.7.9z"/><path d="m63.7 65.9h-3.7v-11.8c0-1.5-.8-2.9-2.2-3.6l-10.4-5.6c0 .1 0 .1-.1.2-1.4 3-3.6 5.6-6.6 8-.7.6-1.8.5-2.5-.1v.1l2.9 12.8h-1.5l-3-12.9.5-2.1c-.5-1-1.3-2.1-2.5-2.5-1.2.4-2 1.5-2.5 2.5l.5 2.1-3 12.9h-1.5l3-12.8c-.6.6-1.7.7-2.5.1-3-2.4-5.2-5-6.6-8 0-.1-.1-.1-.1-.2l-10.4 5.6c-1.3.7-2.2 2.1-2.2 3.6v11.7h-3.4c-.4 0-.8.3-.8.8s.3.8.8.8h57.8c.4 0 .8-.3.8-.8s-.4-.8-.8-.8zm-50.9-11.8c0-.4.3-.8.8-.8.4 0 .8.3.8.8v.6c0 .4-.3.8-.8.8-.4 0-.8-.3-.8-.8zm0 3.9c0-.4.3-.8.8-.8.4 0 .8.3.8.8v5.7c0 .4-.3.8-.8.8-.4 0-.8-.3-.8-.8z"/><path d="m35.8 33.4c-.5.5-1.4.5-2 0-.3-.3-.8-.3-1.1 0s-.3.8 0 1.1c.6.6 1.3.8 2 .8s1.5-.3 2-.8c.3-.3.3-.8 0-1.1-.1-.3-.6-.3-.9 0z"/><path d="m34.8 31c.4 0 .8-.3.8-.8v-1.8c0-.4-.3-.8-.8-.8s-.8.3-.8.8v1.8c.1.5.4.8.8.8z"/><path d="m29.6 24.2c-1.3 0-2.4 1.1-2.4 2.4 0 .4.3.8.8.8s.8-.3.8-.8.4-.9.9-.9.9.4.9.9c0 .4.3.8.8.8s.6-.4.6-.8c0-1.3-1.1-2.4-2.4-2.4z"/><path d="m40.1 24.2c-1.3 0-2.4 1.1-2.4 2.4 0 .4.3.8.8.8s.8-.3.8-.8.4-.9.9-.9.9.4.9.9c0 .4.3.8.8.8s.8-.3.8-.8c-.2-1.3-1.3-2.4-2.6-2.4z"/><path d="m31.7 21.4h-4.2c-.4 0-.8.3-.8.8s.3.8.8.8h4.2c.4 0 .8-.3.8-.8s-.4-.8-.8-.8z"/><path d="m37.2 22.1c0 .4.3.8.8.8h4.2c.4 0 .8-.3.8-.8s-.3-.8-.8-.8h-4.2c-.4.1-.8.4-.8.8z"/></g></svg>