<svg id="Layer_1" enable-background="new 0 0 70 70" height="512" viewBox="0 0 70 70" width="512" xmlns="http://www.w3.org/2000/svg"><g fill="rgb(0,0,0)"><path d="m52.6 37.6c.4.2.8.1 1-.3.1-.2.3-.5.4-.7.2-.4.1-.8-.3-1s-.8-.1-1 .3c-.1.2-.3.5-.4.7-.1.3 0 .8.3 1z"/><path d="m54.5 34.1c.4.2.8 0 1-.4 1.2-3.1 1.8-6.4 1.8-9.7 0-.4-.3-.8-.8-.8s-.8.3-.8.8c0 3.2-.6 6.3-1.7 9.2-.1.3.1.7.5.9z"/><path d="m8.3 56.9c.4.1.8-.2.8-.6l.9-6.4c.1-.4-.2-.8-.6-.8-.4-.1-.8.2-.9.6l-.9 6.4c0 .4.3.8.7.8z"/><path d="m7.5 62.3c.4.1.8-.2.8-.6l.2-1.4c.1-.4-.2-.8-.6-.8-.4-.1-.8.2-.8.6l-.2 1.4c-.1.3.2.7.6.8z"/><path d="m62.8 64.3h-4.1l-2.2-15.5c-.3-2.3-1.9-4.1-4.1-4.8l-7-2.2 1 8.5-2.8 1 2.7 3.8-6.6 9.3h-1.8l6.7-9.3-3.2-4.6 3.6-1.2-1-7.9-2.3-1.6c0-.1.1-.4.1-.5v-1.3l3.3 2.3c4.6-3.5 7.6-9.5 7.6-16.3-.1-11-8-19.8-17.7-19.8s-17.5 8.8-17.5 19.8c0 6.8 3 12.7 7.6 16.3l3.3-2.3v1.4l.1.3-2.3 1.6-1 7.9 3.6 1.2-3.3 4.6 6.7 9.3h-1.8l-6.7-9.3 2.7-3.8-2.8-1 1-8.5-7 2.2c-2.2.7-3.8 2.6-4.1 4.8l-2.2 15.5h-4.1c-.4 0-.8.3-.8.8s.3.8.8.8h55.6c.4 0 .8-.3.8-.8s-.4-.7-.8-.7zm-38.1-47.4c0-.1.2-.2.3-.2 2.9.8 5.6 0 8.6-.9 3.7-1.1 7.5-2.2 11.6 0 .1 0 .1.1.1.2v9.6c0 7.5-7.8 12.5-14.6 9.4-3.5-1.6-6-5.2-6-9.4zm25.2 6.5c0 1.9-1.4 3.5-3.2 3.8.1-.5.1-1 .1-1.5v-6c1.8.3 3.1 1.8 3.1 3.7zm-29.8 0c0-1.9 1.3-3.4 3.1-3.8v6c0 .5 0 1 .1 1.5-1.8-.2-3.2-1.8-3.2-3.7zm9.7 15.7v-2.9c1.4.7 3.4 1.2 5.2 1.2 1.7 0 3.8-.5 5.2-1.2v2.9c-6.9 34.6-4.5 22.7-5 25.2h-.4c-.5-2.6 1.9 9.4-5-25.2z"/><path d="m37 31.4c.3-.3.3-.8 0-1.1s-.8-.3-1.1 0c-.5.5-1.4.5-2 0-.3-.3-.8-.3-1.1 0s-.3.8 0 1.1c1.3 1.1 3.1 1.1 4.2 0z"/><path d="m35 27.9c.4 0 .8-.3.8-.8v-1.8c0-.4-.3-.8-.8-.8s-.8.3-.8.8v1.8c0 .5.4.8.8.8z"/><path d="m28.9 24.9c0-.5.4-.9.9-.9s.9.4.9.9c0 .4.3.8.8.8s.8-.3.8-.8c0-1.3-1.1-2.4-2.4-2.4s-2.4 1.1-2.4 2.4c0 .4.3.8.8.8s.6-.4.6-.8z"/><path d="m40.3 22.5c-1.3 0-2.4 1.1-2.4 2.4 0 .4.3.8.8.8s.8-.3.8-.8.4-.9.9-.9.9.4.9.9c0 .4.3.8.8.8s.8-.3.8-.8c-.3-1.3-1.3-2.4-2.6-2.4z"/><path d="m31.8 21.2c.4 0 .8-.3.8-.8s-.3-.8-.8-.8h-4.2c-.4 0-.8.3-.8.8s.3.8.8.8z"/><path d="m38.1 21.2h4.2c.4 0 .8-.3.8-.8s-.3-.8-.8-.8h-4.2c-.4 0-.8.3-.8.8s.4.8.8.8z"/></g></svg>