<svg id="Layer_1" enable-background="new 0 0 70 70" height="512" viewBox="0 0 70 70" width="512" xmlns="http://www.w3.org/2000/svg"><g fill="rgb(0,0,0)"><path d="m63.1 65.9h-3.7v-7.9c0-4.8-3.2-9.1-7.8-10.5l-1.5-.4v5.7c2.2.9 3.8 3 3.8 5.5v7.7h-1.5v-7.7c0-2.2-1.6-4-3.8-4.3v-7.3l-4.3-1.3v8.5h-18.7v-8.5l-4.3 1.3v7.3c-2.1.3-3.7 2.1-3.7 4.3v7.7h-1.5v-7.7c0-2.5 1.5-4.6 3.7-5.5v-5.7l-1.5.4c-4.7 1.4-7.8 5.6-7.8 10.5v7.9h-3.6c-.4 0-.8.3-.8.8s.3.8.8.8h56.2c.4 0 .8-.3.8-.8s-.4-.8-.8-.8zm-39.4-5.8c-.8 0-1.4-.6-1.4-1.4s.6-1.4 1.4-1.4 1.4.6 1.4 1.4-.7 1.4-1.4 1.4zm22.6 0c-.8 0-1.4-.6-1.4-1.4s.6-1.4 1.4-1.4 1.4.6 1.4 1.4-.6 1.4-1.4 1.4z"/><path d="m17.7 45.1 1.2-.4c.4-.1.6-.5.5-.9s-.5-.6-.9-.5l-1.2.4c-.4.1-.6.5-.5.9s.5.6.9.5z"/><path d="m7.4 58.7c.4 0 .8-.3.8-.8 0-4.5 2.4-8.8 6.2-11.3.3-.2.4-.7.2-1s-.7-.4-1-.2c-4.3 2.8-7 7.6-7 12.6 0 .4.4.7.8.7z"/><path d="m27.2 28.4c.4 0 .8-.3.8-.8 0-.7.6-1.3 1.3-1.3s1.3.6 1.3 1.3c0 .4.3.8.8.8s.8-.3.8-.8c0-1.6-1.3-2.8-2.8-2.8-1.6 0-2.8 1.3-2.8 2.8-.1.4.2.8.6.8z"/><path d="m38.7 28.4c.4 0 .8-.3.8-.8 0-.7.6-1.3 1.3-1.3s1.3.6 1.3 1.3c0 .4.3.8.8.8s.8-.3.8-.8c0-1.6-1.3-2.8-2.8-2.8-1.6 0-2.8 1.3-2.8 2.8-.2.4.1.8.6.8z"/><path d="m32 35.6c.8.8 1.8 1.2 3 1.2s2.2-.4 3-1.2c.3-.3.3-.8 0-1.1s-.8-.3-1.1 0c-1.1 1-2.8 1-3.8 0-.3-.3-.8-.3-1.1 0s-.3.8 0 1.1z"/><path d="m35 32.4c.4 0 .8-.3.8-.8v-2.2c0-.4-.3-.8-.8-.8s-.8.3-.8.8v2.2c.1.4.4.8.8.8z"/><path d="m47.8 39.7c-.2.2-.3.4-.5.6-.3.3-.3.7 0 1s.8.3 1.1-.1c.2-.2.4-.4.6-.7.3-.3.2-.8-.1-1.1-.4-.1-.8-.1-1.1.3z"/><path d="m51 33.4c-.4 1.5-1 2.9-1.8 4.2-.2.4-.1.8.3 1s.8.1 1-.3c.8-1.4 1.5-3 1.9-4.6.1-.4-.1-.8-.5-.9s-.8.2-.9.6z"/><path d="m34.9 14.6c4.7 0 9.4 1.1 14.1 3.2.3-1.2.4-2.4.4-3.6 0-8-6.4-11.6-14.4-11.6-7.9 0-14.4 3.6-14.4 11.6 0 1.2.2 2.4.4 3.6 4.6-2.1 9.2-3.2 13.9-3.2z"/><path d="m21 29.7c.2 4.7 2.6 9 6.8 11.5v3.6l-.6.2v7.4h15.7v-7.4l-.6-.2v-3.6c3.9-2.4 6.6-6.6 6.8-11.5 1.6-.4 2.7-1.8 2.7-3.4s-1-2.9-2.4-3.3c.3-.2.6-.5.7-.8.5-1 .1-2.1-.9-2.6-9.6-4.6-19.1-4.6-28.2 0-.9.5-1.3 1.6-.9 2.6.2.3.4.6.7.8-1.4.5-2.5 1.8-2.5 3.3 0 1.6 1.2 3 2.7 3.4zm19.7 15.2c0 2.9-2.4 5.7-5.7 5.7-3.2 0-5.7-2.6-5.7-5.7v-2.9c1.7.8 3.7 1.2 5.7 1.2 1.6 0 3-.3 4.6-.8.5-.2 1.1-.4 1.2-.4v2.9zm-18.2-21.9h.1c8.2-4.1 16.3-4.1 24.8 0h.1v6.2c0 5.2-3.2 9.8-7.9 11.6-8.2 3.2-17.1-2.8-17.1-11.6z"/></g></svg>