<svg id="Layer_1" enable-background="new 0 0 70 70" height="512" viewBox="0 0 70 70" width="512" xmlns="http://www.w3.org/2000/svg"><g fill="rgb(0,0,0)"><path d="m64.1 65.9h-4.6v-14.2c0-1.5-1-2.8-2.3-3.2s-2.7-.9-5.7-1.8v19.2h-1.5v-19.7c-.1 0-3.7-1.2-3.5-1.1v10.8c0 1.2-1 2.2-2.2 2.2h-18.5c-1.2 0-2.2-1-2.2-2.2v-10.8c-.1 0-3.7 1.1-3.5 1.1v19.7h-1.5v-19.2c-2.9.9-5.7 1.8-5.7 1.8-1.4.5-2.3 1.8-2.3 3.2v14.2h-4.7c-.4 0-.8.3-.8.8s.3.8.8.8h58.2c.4 0 .8-.3.8-.8s-.4-.8-.8-.8z"/><path d="m17.2 43.9 1.9-.6c.4-.1.6-.5.5-.9s-.5-.6-.9-.5l-1.9.6c-.4.1-.6.5-.5.9s.5.6.9.5z"/><path d="m6.7 56.9c.4 0 .8-.3.8-.8v-4.4c0-2.8 1.8-5.2 4.4-6.1l1.8-.6c.4-.1.6-.5.5-.9s-.5-.6-.9-.5l-1.8.6c-3.3 1.1-5.5 4.1-5.5 7.5v4.4c0 .4.3.8.7.8z"/><path d="m39.4 52.3-4.4-3-4 2.9c-1 .7-2.3.4-2.9-.6l-3-4.8v9c0 .4.3.7.7.7h18.4c.4 0 .7-.3.7-.7v-8.8l-2.5 4.6c-.6 1-1.9 1.4-3 .7z"/><path d="m46.2 38.5c-.2.3-.5.6-.7.8-.3.3-.3.8 0 1.1.1.1.3.2.5.2s.4-.1.5-.2c.3-.3.5-.6.8-.9s.2-.8-.1-1.1-.7-.2-1 .1z"/><path d="m50 32.2c-.4-.1-.8.2-.9.6-.2 1-.6 2-1 2.9-.2.4 0 .8.3 1 .1.1.2.1.3.1.3 0 .5-.2.7-.4.5-1 .9-2.1 1.1-3.2.1-.5-.1-.9-.5-1z"/><path d="m29.5 23.5c-1.1 0-2 .9-2 2s.9 2 2 2 2-.9 2-2-.9-2-2-2z"/><path d="m40.5 23.5c-1.1 0-2 .9-2 2s.9 2 2 2 2-.9 2-2-.9-2-2-2z"/><path d="m36.8 33c-1 1-2.6 1-3.6 0-.3-.3-.8-.3-1.1 0s-.3.8 0 1.1c.8.8 1.8 1.2 2.9 1.2 1 0 2.1-.4 2.9-1.2.3-.3.3-.8 0-1.1s-.8-.3-1.1 0z"/><path d="m35 31c.4 0 .8-.3.8-.8v-2.1c0-.4-.3-.8-.8-.8s-.8.3-.8.8v2.1c.1.5.4.8.8.8z"/><path d="m50.4 18c0-8.5-6.9-15.4-15.4-15.4s-15.4 6.9-15.4 15.4v7.3c0 2 1.4 3.6 3.3 3.9v.2c0 3.9 1.8 7.3 4.7 9.6v3.7l-2.1 1.9 3.9 6.3c.2.3.5.3.8.1l4.8-3.5-6-4.9v-2.6c1.6.9 3.7 1.5 5.8 1.6h.2.1c2.1 0 4.2-.6 5.8-1.6v2.6l-6 4.9 5.3 3.5c.3.2.6.1.8-.2l3.5-6.3-2.1-1.9v-3.7c2.8-2.2 4.7-5.7 4.7-9.5v-.2c1.8-.4 3.3-2 3.3-3.9 0-.2 0-7.2 0-7.3zm-25-7.8c1.2-1.5 2.7-2.7 4.5-3.4.4-.2.8 0 1 .4s0 .8-.4 1c-1.5.7-2.9 1.7-3.9 3-.3.3-.7.4-1.1.1-.3-.3-.3-.8-.1-1.1zm-1.6 4.8c-.4-.1-.6-.6-.5-1 .1-.2.2-.5.3-.7.1-.4.6-.6 1-.4s.6.6.4 1c-.1.2-.2.4-.3.6-.1.5-.6.6-.9.5zm21.8 14.4c0 5.9-4.8 10.6-10.6 10.6s-10.6-4.7-10.6-10.6v-8.4c0-.9.3-1.7.9-2.1.8-.7 2-.8 3-.8.6 0 1.1.1 1.1.1h.1 5.5c2 0 3.9-.7 5.5-2.1.2-.1.3-.1.4-.1s.2.1.3.3c.9 2.9 2.9 3.6 4.1 3.7.3 0 .4.2.4.5v8.9z"/></g></svg>