<svg id="Layer_1" enable-background="new 0 0 70 70" height="512" viewBox="0 0 70 70" width="512" xmlns="http://www.w3.org/2000/svg"><g fill="rgb(0,0,0)"><path d="m65.5 64.9h-5v-12.2c0-1.5-1-2.9-2.4-3.3-2.4-.8-4.4-1.4-6.1-2v7c1.4.2 2.5 1.4 2.5 2.9v7.6h-1.5v-7.6c0-.8-.6-1.4-1.4-1.4h-1.1v-9c-10.7-3.5.7.2-5.3-1.7v10.7h-20.4v-10.7c-.1 0-4 1.3-5.3 1.7v9h-1.1c-.8 0-1.4.6-1.4 1.4v7.6h-1.5v-7.6c0-1.5 1.1-2.7 2.5-2.9v-7c-1.7.5-3.7 1.2-6.1 2-1.4.5-2.4 1.8-2.4 3.3v12.2h-5c-.4 0-.8.3-.8.8s.3.8.8.8h61.1c.4 0 .8-.3.8-.8s-.4-.8-.9-.8zm-40.5-6.5h8.5c.4 0 .8.3.8.8 0 .4-.3.8-.8.8h-8.5c-.4 0-.8-.3-.8-.8.1-.5.4-.8.8-.8zm-3.6 0h.8c.4 0 .8.3.8.8 0 .4-.3.8-.8.8h-.8c-.4 0-.8-.3-.8-.8s.3-.8.8-.8z"/><path d="m55.4 44.3c-.1.4.1.8.5.9l3.2 1c2.8.9 4.7 3.5 4.7 6.4 0 .4.3.8.8.8s.8-.3.8-.8c0-3.6-2.3-6.8-5.7-7.9l-3.2-1c-.6-.1-1 .2-1.1.6z"/><path d="m52.2 42.4c-.4-.1-.8.1-.9.5s.1.8.5.9l.9.3h.2c.3 0 .6-.2.7-.5.1-.4-.1-.8-.5-.9z"/><path d="m16.7 26.6h2.9v10.7c.1 1.6 3.3 2.8 7.6 3.4v3.7c-.3.1-.6.2-.9.3v9.7h17.4v-9.7c-.4-.1-.7-.2-.9-.3v-3.5c5-.5 8.9-1.7 8.8-3.5v-10.8h2.9c.7 0 1.3-.6 1.3-1.3v-6.1c0-.7-.6-1.3-1.3-1.3h-2.9v-5.7c0-4.7-3.8-8.6-8.5-8.6h-14.9c-4.7 0-8.5 3.8-8.5 8.6v5.7h-2.9c-.7 0-1.3.6-1.3 1.3v6.1c-.1.7.5 1.3 1.2 1.3zm24.6 14.4v3.8c-3.6 3-8.9 3-12.5 0v-4c3.9.5 8.4.5 12.5.2zm-9.4-4.7c0-.4.4-.8.8-.7h.8c.4 0 .7.4.7.8s-.3.7-.8.7c-.3 0-.6 0-.8 0-.4 0-.7-.3-.7-.8zm-7.3-24.4c0-.5.4-.9.9-.9h20.1c.5 0 .9.4.9.9v9.2c0 .5-.4.9-.9.9h-20.1c-.5 0-.9-.4-.9-.9zm-1.7 15c0-.4.3-.8.8-.8.4 0 .8.3.8.8v7.6c1.2.3 2.9.7 4.8.9.4 0 .7.4.7.8s-.4.7-.7.7h-.1c-2.4-.3-4.5-.7-5.7-1.1-.3-.1-.5-.4-.5-.7v-8.2z"/><path d="m38.7 14.6h4c.4 0 .8-.3.8-.8s-.3-.8-.8-.8h-4c-.4 0-.8.3-.8.8s.4.8.8.8z"/><path d="m36 14.6h.5c.4 0 .8-.3.8-.8s-.3-.8-.8-.8h-.5c-.4 0-.8.3-.8.8s.4.8.8.8z"/></g></svg>