<svg id="Layer_1" enable-background="new 0 0 70 70" height="512" viewBox="0 0 70 70" width="512" xmlns="http://www.w3.org/2000/svg"><g fill="rgb(0,0,0)"><path d="m65.5 65.4h-5.6v-11.9c0-1.5-1-2.8-2.4-3.3h-.1s0 0-.1 0c-.7-.2-3.1-1-11-3.6l-3.8 6.8c-.6 1.1-2 1.4-3 .7l-.6-.4-.5.5 2.1 7c.2.9.1 1.8-.5 2.4l-1.5 1.8h-1.9l2.2-2.8c.2-.3.3-.7.2-1l-1.9-6.3h-4.3l-1.9 6.3c-.1.4 0 .7.2 1l2.2 2.8h-1.9l-1.4-1.8c-.5-.7-.7-1.6-.5-2.4l2.1-7-.4-.4-.2.2c-1 .7-2.3.4-3-.6l-4.2-6.8-3.1.9-8.2 2.6c-1.4.5-2.4 1.8-2.4 3.3v11.9h-5.6c-.4 0-.8.3-.8.8s.3.8.8.8h28.1 4.8 28.1c.4 0 .8-.3.8-.8s-.3-.7-.8-.7zm-19.3-7.9h1.1l2.9-2.9c.3-.3.7-.3.9 0l2.9 2.9h1.1c.4 0 .8.3.8.8 0 .4-.3.8-.8.8h-9c-.4 0-.8-.3-.8-.8.1-.5.5-.8.9-.8z"/><path d="m6.1 57.2c.4 0 .8-.3.8-.8v-2.9c0-2.9 1.8-5.4 4.6-6.3l4.2-1.4c.4-.1.6-.5.5-.9s-.5-.6-.9-.5l-4.3 1.3c-3.4 1.1-5.6 4.2-5.6 7.8v2.9c-.1.4.3.8.7.8z"/><path d="m6.1 61.7c.4 0 .8-.3.8-.8v-1.4c0-.4-.3-.8-.8-.8s-.8.3-.8.8v1.5c0 .4.4.7.8.7z"/><path d="m33.3 53.8h3.4l1-1-2.7-1.7-2.5 1.8z"/><path d="m27.7 27.1c-.3.3-.3.8 0 1.1.1.1.3.2.5.2s.4-.1.5-.2c.5-.5 1.3-.5 1.8 0 .3.3.8.3 1.1 0s.3-.8 0-1.1c-1.1-1.1-2.8-1-3.9 0z"/><path d="m39 28.4c.2 0 .4-.1.5-.2.5-.5 1.3-.5 1.8 0 .3.3.8.3 1.1 0s.3-.8 0-1.1c-1.1-1.1-2.8-1.1-3.9 0-.3.3-.3.8 0 1.1.1.1.3.2.5.2z"/><path d="m35 33.4c.4 0 .8-.3.8-.8v-1.6c0-.4-.3-.8-.8-.8s-.8.3-.8.8v1.6c.1.4.4.8.8.8z"/><path d="m52 36.3c.2.4.6.5 1 .4.2-.1.4-.2.5-.3.4-.2.5-.7.3-1-.2-.4-.7-.5-1-.3-.1.1-.3.1-.4.2-.4.2-.6.7-.4 1z"/><path d="m55.5 34.9c1.3-1.4 2-3.2 2-5.1 0-.4-.3-.8-.8-.8s-.7.4-.7.8c0 1.5-.6 3-1.6 4.1-.3.3-.3.8.1 1.1.2.2.7.2 1-.1z"/><path d="m20.2 31.8h2.8c.2 2.9 1.4 5.6 3.5 7.7.3.3.6.6.9.8v3.9l-2.2 2 4 6.4c.2.3.5.3.8.2l4.9-3.6 5.4 3.6c.3.2.6.1.8-.2l3.6-6.4-2.2-2v-3.9c.8-.6 1.5-1.4 2.1-2.2h.8c2.2 0 4-1.8 4-4v-2.4h.4c1.6 0 2.9-1.3 2.9-2.9v-5.1c0-1-.6-1.9-1.4-2.4v-2c0-9-7.3-16.3-16.3-16.3s-16.3 7.3-16.3 16.3v2c-.8.5-1.4 1.4-1.4 2.4v5.1c0 1.7 1.3 3 2.9 3zm12.3-20.7c-.1-.4.2-.8.6-.9.3 0 .5-.1.8-.1.4 0 .8.3.8.7s-.3.8-.7.8c-.2 0-.5.1-.7.1 0 0-.1 0-.2 0-.2 0-.5-.3-.6-.6zm9.3 2.8c-.1.1-.3.2-.5.2s-.4-.1-.5-.2c-1.2-1.2-2.7-2-4.4-2.3-.4-.1-.7-.5-.6-.9s.5-.7.9-.6c2 .3 3.8 1.3 5.2 2.7.2.3.2.8-.1 1.1zm-6.8 35.3-6.1-5v-2.8c1.8 1.1 3.9 1.7 6.1 1.7s4.3-.6 6.1-1.7v2.8zm6.4-9.9c-1.8 1.4-4 2.2-6.4 2.2-2.3 0-4.5-.7-6.3-2.1 0 0-.1-.1-.1-.1-.4-.3-.7-.6-1.1-.9-2-2-3.1-4.6-3.1-7.5v-5.6l3-4.7c.7 0 2.2 0 3.6-.8-.1.7-.5 1.4-1.6 1.8-.3.1-.5.5-.5.8s.3.6.7.6 8.5.7 13.4-4.4c.7.4 2.4 1.8 2.6 6.4v6c0 2.1-.6 4-1.7 5.7h-5.3c-.3-.6-.9-1-1.6-1h-.9c-1 0-1.8.8-1.8 1.8s.8 1.8 1.8 1.8h.9c.7 0 1.4-.4 1.7-1.1h4.1c-.5.4-.9.8-1.4 1.1zm6.6-5.2c0 1.3-1 2.4-2.3 2.5.8-1.4 1.3-3.1 1.4-4.8h.9zm-13-29.5c8.2 0 14.8 6.6 14.8 14.8v1.6h-1.9v-1.3c0-7.1-5.8-12.9-12.9-12.9-3.6 0-6.8 1.4-9.1 3.8-2.3 2.3-3.8 5.6-3.8 9.1v1.3h-1.9v-1.5c0-8.2 6.6-14.9 14.8-14.9z"/></g></svg>