<svg id="Layer_1" enable-background="new 0 0 70 70" height="512" viewBox="0 0 70 70" width="512" xmlns="http://www.w3.org/2000/svg"><g fill="rgb(0,0,0)"><path d="m62.7 66.1h-6.6v-13.5c0-1.3-.8-2.4-2-2.8-15.8-5.1 4.3 1.4-11-3.6v4.4c0 2.1-2.2 3.5-4.1 2.7l-2 6c1.2.7 2 2 2 3.4 0 1.3-.7 2.5-1.7 3.2h-4.6c-1-.7-1.7-1.9-1.7-3.2 0-1.5.9-2.8 2.1-3.4l-2-6c-1.9.8-4.1-.5-4.1-2.7v-4.4c-8.9 2.9-3.3 1.1-11 3.6-1.2.4-2 1.5-2 2.8v13.4h-6.7c-.4 0-.8.3-.8.8s.3.8.8.8h55.4c.4 0 .8-.3.8-.8s-.4-.7-.8-.7zm-14.7 0v-5c0-.4.3-.8.8-.8s.8.3.8.8v5zm-27.5 0v-5c0-.4.3-.8.8-.8s.8.3.8.8v5z"/><path d="m9.9 53.4c.4 0 .8-.3.8-.8 0-.4 0-.9.1-1.3s-.2-.8-.6-.9-.8.2-.9.6c-.1.5-.2 1.1-.2 1.6 0 .4.4.8.8.8z"/><path d="m9.9 62.8c.4 0 .8-.3.8-.8v-6.3c0-.4-.3-.8-.8-.8s-.8.3-.8.8v6.3c0 .5.4.8.8.8z"/><path d="m47.8 39.1c-.4.8-1 1.6-1.5 2.3-.3.3-.2.8.1 1.1s.8.2 1.1-.1c.6-.8 1.2-1.6 1.7-2.5.2-.4.1-.8-.3-1-.5-.3-.9-.2-1.1.2z"/><path d="m50.2 37.3c.1-.2.1-.4.2-.6.1-.4-.1-.8-.5-.9s-.8.1-.9.5c-.1.2-.1.4-.2.6-.1.4.1.8.5 1 .4 0 .8-.2.9-.6z"/><path d="m32.2 31.8c0-1.3-1-2.3-2.3-2.3s-2.3 1-2.3 2.3c0 .4.3.8.8.8s.8-.3.8-.8.4-.8.8-.8c.5 0 .8.4.8.8s.3.8.8.8.6-.4.6-.8z"/><path d="m40.5 29.5c-1.3 0-2.3 1-2.3 2.3 0 .4.3.8.8.8s.8-.3.8-.8.4-.8.8-.8c.5 0 .8.4.8.8s.3.8.8.8.8-.3.8-.8c-.2-1.3-1.2-2.3-2.5-2.3z"/><path d="m37 37.8c-1.1 1.4-3 1.4-4.1 0-.3-.3-.7-.4-1.1-.1-.3.3-.4.7-.1 1.1.9 1.1 2 1.7 3.2 1.7s2.4-.6 3.2-1.7c.3-.3.2-.8-.1-1.1-.2-.3-.7-.2-1 .1z"/><path d="m35 35.7c.4 0 .8-.3.8-.8v-1.8c0-.4-.3-.8-.8-.8s-.8.3-.8.8v1.9c0 .4.4.7.8.7z"/><path d="m20.1 26.3c-.5.7-.8 1.5-.8 2.4 0 2.1 1.5 3.9 3.6 4.2.3 3.7 2.2 7.2 5.5 9.3v3.3 5.1c0 1 1.1 1.7 2 1.3l4.5-2 4.6 2c.9.4 2-.3 2-1.3 0-.1 0-8.9 0-8.5 3.1-2 5.2-5.4 5.5-9.3 2-.3 3.6-2.1 3.6-4.2 0-.9-.3-1.7-.8-2.4 0-.1 0-6.4 0-6.1 0-7.1-5-13-11.6-14.5 0-1.8-1.5-3.3-3.3-3.3s-3.3 1.5-3.3 3.3c-6.7 1.5-11.6 7.4-11.6 14.5.1.6.1 6.6.1 6.2zm25.9-4.5c-.4 2.3-2.4 4.1-4.8 4.1h-12.4c-2.4 0-4.4-1.8-4.8-4.1zm-25.1 6.9c0-1.3.9-2.3 2-2.7v5.3c-1.1-.2-2-1.3-2-2.6zm19.1 14.4v2.1l-4 2.5-1 .6-5-3.1v-2.1c1.5.7 3.3 1.1 5 1.1 1.8 0 3.6-.5 5-1.1zm-12.5-3.5c-2-2-3.1-4.6-3.1-7.4v-6.5c1.1 1.1 2.7 1.7 4.3 1.7h12.5c1.5 0 3.2-.6 4.3-1.7v6.5c0 9.2-11.3 14-18 7.4zm19.6-8.2v-5.3c1.2.3 2 1.4 2 2.7 0 1.2-.9 2.3-2 2.6zm-3.3-11.1h-1.5v-.1c0-7-5.3-12.9-6.9-14.5.8 0 1.5.1 2.3.2 2.3 2.7 6.1 8 6.1 14.4zm-11.5-14.3c.7-.1 1.5-.2 2.3-.2-1.5 1.5-6.9 7.4-6.9 14.5v.1h-1.5v-.1c0-6.4 3.8-11.7 6.1-14.3z"/><path d="m21.6 8c.2-.2.3-.3.5-.5.3-.3.3-.8 0-1.1s-.8-.3-1.1 0c-.2.2-.4.4-.5.5-.3.3-.3.8 0 1.1.3.4.8.3 1.1 0z"/><path d="m16.2 18.5c.4.1.8-.2.8-.6.4-2.8 1.4-5.5 3-7.8.2-.3.1-.8-.2-1s-.8-.1-1 .2c-1.7 2.5-2.8 5.5-3.2 8.5-.1.3.2.7.6.7z"/><circle cx="35" cy="62.9" r="2.5"/><path d="m35 51.6-2.5 1.1 2.1 6.2h.5s.3 0 .5 0l2.1-6.2z"/></g></svg>