<svg id="Layer_1" enable-background="new 0 0 70 70" height="512" viewBox="0 0 70 70" width="512" xmlns="http://www.w3.org/2000/svg"><g fill="rgb(0,0,0)"><path d="m8.2 58.7c.4 0 .8-.3.8-.7v-1.4c0-3.9 1.6-7.7 4.5-10.5.3-.3.3-.8 0-1.1s-.8-.3-1.1 0c-3.1 3-4.9 7.3-4.9 11.6v1.4c0 .4.3.7.7.7z"/><path d="m9 62.4v-1.1c0-.4-.3-.8-.8-.8s-.8.3-.8.8v1.1c0 .4.3.8.8.8s.8-.4.8-.8z"/><path d="m47.3 40.2c-.2.2-.4.5-.5.7-.3.3-.2.8.1 1.1s.8.2 1.1-.1c.2-.2.4-.5.6-.8s.2-.8-.2-1c-.4-.3-.9-.3-1.1.1z"/><path d="m48.9 39.1c.4.2.8 0 1-.3.6-1.1 1-2.2 1.3-3.4.1-.4-.1-.8-.5-.9s-.8.1-.9.5c-.3 1.1-.7 2.1-1.2 3.1-.2.4-.1.8.3 1z"/><path d="m35.2 32.9c.8 0 1.5-.4 2-1.2.2-.3.1-.8-.2-1s-.8-.1-1 .2-.5.5-.7.5c-.2 0-.5-.2-.7-.5s-.7-.4-1-.2-.4.7-.2 1c.4.8 1.1 1.2 1.8 1.2z"/><path d="m30.5 29c0 .4.3.8.8.8s.7-.4.7-.8c0-1.4-1.1-2.5-2.5-2.5s-2.5 1.1-2.5 2.5c0 .4.3.8.8.8s.8-.3.8-.8.4-1 1-1 .9.5.9 1z"/><path d="m41 26.6c-1.4 0-2.5 1.1-2.5 2.5 0 .4.3.8.8.8s.7-.5.7-.9c0-.5.4-1 1-1s1 .4 1 1c0 .4.3.8.8.8s.8-.3.8-.8c-.2-1.3-1.3-2.4-2.6-2.4z"/><path d="m32.2 35.3c.5 1.2 1.7 2 3 2s2.5-.8 3-2c.2-.4 0-.8-.4-1s-.8 0-1 .4c-.3.7-.9 1.1-1.6 1.1s-1.4-.4-1.6-1.1c-.2-.4-.6-.6-1-.4-.4.1-.5.6-.4 1z"/><path d="m31.9 25.6c.4 0 .8-.3.8-.8s-.3-.8-.8-.8h-4.7c-.4 0-.8.3-.8.8s.3.8.8.8z"/><path d="m38.6 25.6h4.7c.4 0 .8-.3.8-.8s-.3-.8-.8-.8h-4.7c-.4 0-.8.3-.8.8s.4.8.8.8z"/><path d="m61.8 66.2h-2.8v-9.7c0-6.6-5.4-12.2-12.2-12.2h-3c-1.3-.2-2.3-1.1-2.5-2.3 3-1.6 5.3-4.6 6.1-8.2.1-.4.2-.7.3-1 1.6-.5 3.7-2.3 4-4.6.2-1.1 0-2.2-.5-3.2.1-.8.2-1.7.2-2.5 0-2-.4-3.9-1.1-5.7.3-.1.6-.2.9-.3 2.8-1.2 4.6-3.9 4.6-6.9 0-4.1-3.4-7.5-7.5-7.5-3.5 0-6.4 2.4-7.2 5.4-1.8-.7-3.9-1.2-6-1.2-9 0-16.2 7.3-16.2 16.2 0 .8.1 1.7.2 2.5-.5 1-.6 2.1-.5 3.1.4 2.3 2.5 4.1 4.1 4.6.1.3.2.7.3 1 .8 3.6 3.1 6.5 6.1 8.1-.3 1.2-1.3 2.1-2.5 2.3h-3c-6.7 0-12.2 5.5-12.2 12.2v9.7h-2.7c-.4 0-.8.3-.8.8s.3.8.8.8h53.1c.4 0 .8-.3.8-.8s-.4-.6-.8-.6zm-12.2 0v-3.8c0-.4.3-.8.8-.8.4 0 .8.3.8.8v3.8zm-5.8-11.9c0-.3.3-.6.6-.6h8.6c.4 0 .6.3.6.6v2c0 .4-.3.6-.6.6h-8.6c-.4 0-.6-.3-.6-.6zm6.7-39.8c0 .3 0 .6-.1.9-.2.1-.4.2-.6.2-1.2-2.5-3.3-5-6.3-6.8-.1 0-.2-.1-.2-.1 3.8-.8 7.2 2.1 7.2 5.8zm-23.6-.8c2.3-2.1 5.2-3.3 8.3-3.3.4 0 .8.3.8.8 0 .4-.3.8-.8.8-2.7 0-5.3 1-7.3 2.8-.3.3-.8.3-1.1 0-.2-.3-.2-.8.1-1.1zm-2.6 3.6c.2-.3.4-.7.6-1s.7-.5 1-.2c.4.2.5.7.2 1-.2.3-.4.6-.5.9-.2.4-.6.5-1 .3s-.5-.6-.3-1zm.2 16.3c-.1-.5-.3-1.1-.4-1.5-.1-.3-.3-.5-.6-.5-.9-.2-3-1.5-3.3-3.5-.3-1.9 1-3.9 2.3-4.2.4 0 .7-.3.7-.7.1-.7.7-1.2 1.4-1.2 6.5 0 11.6-3.5 14.9-6.8 1.5 3.5 4 6.3 7.5 8.3.1 0 .1.1.2.1.1.2.3.2.5.2 1.2.2 2.7 2.1 2.4 4.2-.3 1.8-2.2 3.3-3.3 3.5-.3 0-.5.3-.6.5-.1.5-.3 1-.4 1.5-1.1 4.9-5.4 8.5-10.5 8.5h-.3c-5.1.1-9.4-3.4-10.5-8.4zm6 9.2c1.4.5 2.9.8 4.5.8h.5c1.6 0 3.1-.3 4.4-.8.5 1.5 1.7 2.7 3.2 3-.7 5.1-6.3 10.5-7.9 12-1.7-1.5-7.3-6.8-8-12 1.6-.4 2.9-1.6 3.3-3zm-11.1 19.6c0-.4.3-.8.8-.8.4 0 .8.3.8.8v3.8h-1.5v-3.8z"/></g></svg>