<svg id="Layer_1" enable-background="new 0 0 70 70" height="512" viewBox="0 0 70 70" width="512" xmlns="http://www.w3.org/2000/svg"><g fill="rgb(0,0,0)"><path d="m60.3 65.4h-6.6l4-18c.2-.9-.5-1.8-1.5-1.8h-43.1c-1 0-1.7.9-1.5 1.8l4 18h-6.5c-.4 0-.8.3-.8.8s.3.8.8.8h51.2c.4 0 .8-.3.8-.8s-.4-.8-.8-.8zm-41.6-5c.4-.1.8.2.9.6l.2 1.1c.1.4-.2.8-.6.9s-.8-.2-.9-.6l-.2-1.1c-.1-.4.2-.8.6-.9zm16-7.2c1.9 0 3.5 1.5 3.5 3.5 0 1.9-1.5 3.5-3.5 3.5-1.9 0-3.5-1.6-3.5-3.5.1-1.9 1.6-3.5 3.5-3.5zm-19-4.1c.1-.2.4-.3.6-.3h9.7c.4 0 .8.3.8.8s-.3.8-.8.8h-8.7l1.8 8c.1.4-.2.8-.6.9s-.8-.2-.9-.6l-2-8.9c-.1-.3 0-.5.1-.7z"/><path d="m51.8 42.3-11.5-3.2c0-.3.1-.5.1-.8v-3.2c2.9-1.8 4.9-4.9 5.2-8.5 2.1-.3 3.7-2.1 3.7-4.3 0-1.2-.5-2.2-1.2-3 0 0 .1 0 .1.1v-6.4c0-3.4-2.2-6.5-5.4-7.6l-5.3-1.8c-1.7-.6-3.6-.6-5.4 0l-5.3 1.8c-3.2 1.1-5.4 4.2-5.4 7.7v6.4s.1-.1.1-.1c-.7.8-1.2 1.8-1.2 3 0 2.2 1.6 4 3.7 4.3.2 3.6 2.2 6.7 5.2 8.5v3.2c0 .3 0 .5.1.8l-11.5 3.2c-.9.3-1.5 1-1.8 1.8h37.8c-.4-.9-1.1-1.6-2-1.9zm-26.4-24.5c0-.8.2-1.4.7-1.8.7-.6 1.8-.7 2.6-.7.4 0 .7 0 1 .1h.1 4.9c2.5 0 4.2-1.2 5.2-2.2.7 3.5 2.5 4.9 4.1 5.3l-2 1.5c-.6-.9-1.5-1.4-2.6-1.4s-2 .5-2.6 1.4c-1.4-.8-2.8-.8-4.2 0-.6-.8-1.5-1.3-2.6-1.3s-2 .5-2.6 1.3l-2.1-1.6v-.6zm0 8.2v-5.8l1.3 1c.1.1.2.1.2.1v.5c0 1.8 1.4 3.2 3.2 3.2s3.2-1.4 3.2-3.2c0-.1 0-.3 0-.4 1-.7 2-.7 3.1 0v.4c0 1.8 1.4 3.2 3.2 3.2s3.2-1.4 3.2-3.2c0-.1 0-.2 0-.4.1 0 .2-.1.3-.1l1.2-.9v5.6c0 5-4 9.3-9.3 9.3-5.5 0-9.6-4.3-9.6-9.3zm13.4 12.4c0 2.3-1.8 4.1-4.1 4.1s-4.1-1.8-4.1-4.1v-2.4c2.7 1.1 5.7 1 8.2 0z"/><path d="m52.1 14c-.4 0-.8.3-.8.8v1.7c0 .4.3.8.8.8s.8-.3.8-.8v-1.7c-.1-.4-.4-.8-.8-.8z"/><path d="m51.2 11c.1.4.5.7.9.6s.7-.5.6-.9c-.5-2.4-1.7-4.7-3.5-6.6-.3-.3-.8-.3-1.1 0s-.3.8 0 1.1c1.6 1.6 2.7 3.6 3.1 5.8z"/><path d="m21.8 29.3c-.1-.4-.5-.6-.9-.5s-.6.5-.5.9c.4 1.5 1 3 1.9 4.3.2.3.7.4 1 .2s.4-.7.2-1c-.7-1.2-1.3-2.5-1.7-3.9z"/><path d="m24.7 36.8c.3.3.8.3 1.1 0s.3-.8 0-1.1-.5-.5-.8-.8-.8-.3-1.1 0-.3.8 0 1.1z"/><path d="m34.7 31.4c.9 0 1.7-.3 2.3-1 .3-.3.3-.8 0-1.1s-.8-.3-1.1 0c-.7.7-1.8.7-2.5 0-.3-.3-.8-.3-1.1 0s-.3.8 0 1.1c.7.6 1.5 1 2.4 1z"/><path d="m34.7 28.1c.4 0 .8-.3.8-.8v-1.6c0-.4-.3-.8-.8-.8s-.7.4-.7.8v1.6c0 .5.3.8.7.8z"/><path d="m58.5 61.7c.4.1.8-.2.9-.6l.2-1c.1-.4-.2-.8-.6-.9s-.8.2-.9.6l-.2 1c0 .4.2.8.6.9z"/><path d="m61 50.3c-.4-.1-.8.2-.9.6l-1.4 6.3c-.1.4.2.8.6.9s.8-.2.9-.6l1.4-6.3c.1-.4-.1-.8-.6-.9z"/></g></svg>