<svg id="Layer_1" enable-background="new 0 0 70 70" height="512" viewBox="0 0 70 70" width="512" xmlns="http://www.w3.org/2000/svg"><g fill="rgb(0,0,0)"><path d="m7.7 55.6c.5 0 .8-.3.8-.7.3-3.3 1.9-6.3 4.5-8.4.3-.3.4-.7.1-1.1-.3-.3-.7-.4-1.1-.1-2.8 2.4-4.6 5.7-5 9.4 0 .4.3.8.7.9z"/><path d="m7.7 61.8c.4 0 .8-.3.8-.8v-1.5c0-.4-.3-.8-.8-.8-.4 0-.8.3-.8.8v1.5c0 .4.4.8.8.8z"/><path d="m51.5 35.9c-.4-.2-.8 0-1 .3-.7 1.4-1.5 2.7-2.5 3.8-.3.3-.2.8.1 1.1s.8.2 1.1-.1c1.1-1.3 2-2.7 2.8-4.2 0-.3-.1-.7-.5-.9z"/><path d="m51.7 32.9c-.1.3-.1.5-.2.7-.1.4.1.8.5.9s.8-.1.9-.5c.1-.3.2-.5.2-.8.1-.4-.1-.8-.5-.9s-.8.2-.9.6z"/><path d="m22 4.3c.2 0 .3 0 .5-.2.3-.3.7-.5 1-.7s.4-.7.2-1c-.2-.4-.7-.4-1-.2-.4.3-.7.5-1.1.8-.3.3-.4.7-.1 1.1.1.1.3.2.5.2z"/><path d="m14.4 14.6h.2c.3 0 .6-.2.7-.5.9-2.6 2.2-5 4.1-7.1.3-.3.2-.8-.1-1.1s-.8-.2-1.1.1c-2 2.2-3.4 4.8-4.3 7.6-.1.5.1.9.5 1z"/><path d="m52.4 20.6c0-4.8-1.9-9.2-5.1-12.3-3.1-3.2-7.5-5.1-12.3-5.1-9.6 0-17.4 7.8-17.4 17.4v4.5c0 1.7 1.2 3.1 2.7 3.5v.2c0 5.3 2.8 9.9 7 12.5v2.9l-2.2 1.9c-.3.3-.3.7-.1 1l5.3 6.3c.4.5 1.2.5 1.6 0l3.1-3.8-6.2-4.8v-2.8c1.7.8 4 1.4 6.2 1.4 1.9 0 4.2-.4 6.2-1.4v2.8l-6.2 4.9 3.1 3.8c.4.5 1.2.5 1.6 0l5.3-6.3c.3-.3.2-.8-.1-1l-2.2-1.9v-2.9c4.2-2.6 7-7.2 7-12.5v-.2c1.6-.4 2.8-1.8 2.8-3.5-.1-.2-.1-4.5-.1-4.6zm-4.2 8.2c0 7.9-6.5 11.4-6.6 11.4-8.6 5-19.8-1.2-19.8-11.4v-4.5l2.2 1.6c.1.1.2.1.3.1v.4c0 2.5 2.1 4.6 4.6 4.6s4.6-2.1 4.6-4.6c0-.2 0-.3 0-.4 1.1-.5 2.1-.5 3.1 0v.4c0 2.5 2 4.6 4.6 4.6 2.5 0 4.6-2.1 4.6-4.6 0-.1 0-.3 0-.4.1 0 .2 0 .3-.1l2.2-1.6v4.5zm0-6.4-3.1 2.3c-.8-.7-2.3-.5-4-.5-1.6 0-3.1-.1-3.9.5-1.5-.7-3-.7-4.5 0-.8-.6-2.2-.5-3.9-.5s-3.2-.1-4 .5l-3.1-2.3v-.7c0-1.7.8-3.2 2.1-4.3 1-.8 2.2-1.2 3.4-1.2.4 0 .8 0 1.2.1 4.4 1 8.8 1 13.1 0 1.6-.4 3.3 0 4.6 1.1s2.1 2.6 2.1 4.3z"/><path d="m38.3 35.1h-6.6c-.3 0-.5.3-.4.6.4 1.7 1.9 2.9 3.7 2.9s3.3-1.3 3.7-2.9c.1-.3-.1-.6-.4-.6z"/><path d="m35 33.1c.4 0 .8-.3.8-.8v-1.8c0-.4-.3-.8-.8-.8s-.8.3-.8.8v1.8c0 .5.4.8.8.8z"/><path d="m30.5 20.1h-3.3c-.4 0-.8.3-.8.8s.3.8.8.8h3.3c.4 0 .8-.3.8-.8s-.4-.8-.8-.8z"/><path d="m42.8 20.1h-3.3c-.4 0-.8.3-.8.8s.3.8.8.8h3.3c.4 0 .8-.3.8-.8s-.4-.8-.8-.8z"/><path d="m66.3 66.4h-8v-10.3c0-5.1-4.2-9.3-9.3-9.3h-2.3c0 .4-.2.9-.5 1.3l-5.3 6.3c-.5.6-1.2.9-1.9.9-.2 0-.3 0-.5 0l-.6.7 1.6 10.5h-1.5l-1.7-10.9.8-1c-.1-.1 0 0-2.1-2.5-2 2.5-2 2.4-2.1 2.5l.8 1-1.7 10.8h-1.5l1.6-10.4-.5-.7c-.1 0-.3 0-.5 0-.7 0-1.5-.3-1.9-.9l-5.3-6.3c-.3-.4-.5-.8-.5-1.3h-2.4c-5.1 0-9.3 4.2-9.3 9.3v10.3h-8c-.4 0-.8.3-.8.8 0 .4.3.8.8.8h62.6c.4 0 .8-.3.8-.8 0-.4-.4-.8-.8-.8zm-44.6 0h-1.5v-5.4c0-.4.3-.8.8-.8.4 0 .8.3.8.8v5.4zm28.1 0h-1.5v-5.4c0-.4.3-.8.8-.8.4 0 .8.3.8.8v5.4z"/></g></svg>