<svg id="Layer_1" enable-background="new 0 0 70 70" height="512" viewBox="0 0 70 70" width="512" xmlns="http://www.w3.org/2000/svg"><g fill="rgb(0,0,0)"><path d="m17.8 42.6c.1.3.4.5.7.5h.2l1-.3c.4-.1.6-.5.5-.9s-.6-.6-.9-.5l-1 .3c-.4.1-.7.5-.5.9z"/><path d="m7.1 54.8c.4 0 .8-.3.8-.8v-2.7c0-2.8 1.8-5.3 4.5-6.2l2.7-.9c.4-.1.6-.6.5-.9s-.5-.6-.9-.5l-2.7.9c-3.3 1.1-5.6 4.2-5.6 7.6v2.7c-.1.5.3.8.7.8z"/><path d="m65.5 65.8h-6.6v-4.3h-8.8v4.3h-1.5v-8.8c0-.4.3-.8.8-.8.4 0 .8.3.8.8v3h8.8v-8.6c0-1.4-.9-2.7-2.3-3.1-1.2-.4-10.7-3.5-14.3-4.6v-3.3c3.2-2.3 5.3-6 5.3-10.2 0-.1 0-1.4 0-1.3 1.7-.3 2.9-1.8 2.9-3.6s-1.3-3.3-2.9-3.6v-.1h1.8c.3 0 .6-.3.6-.6v-2.5c0-.3-.3-.6-.6-.6h-.5v-.4c0-3.9-1.6-7.3-4.1-9.9-2.5-2.5-6-4.1-9.9-4.1-7.7 0-14 6.3-14 14v.4h-.4c-.3 0-.6.3-.6.6v2.5c0 .3.3.6.6.6h1.8v.1c-1.7.3-2.9 1.8-2.9 3.6s1.3 3.3 2.9 3.6c0 .5 0 1.4 0 1.3 0 3.9 1.8 7.7 5.3 10.2v3.3c-13.7 4.3-4.8 1.4-14.4 4.5-1.4.4-2.3 1.7-2.3 3.1v8.7h8.8v-3c0-.4.3-.8.8-.8.4 0 .8.3.8.8v8.8h-1.5v-4.3h-8.8v4.3h-6.6c-.4 0-.8.3-.8.8 0 .4.3.8.8.8h61.1c.4 0 .8-.3.8-.8-.1-.4-.4-.8-.9-.8zm-30.5-57.8c3.5 0 6.4 2.9 6.4 6.4s-2.9 6.4-6.4 6.4-6.4-2.9-6.4-6.4 2.9-6.4 6.4-6.4zm-11.1 20.6v-7.1h7.6c1.1.5 2.3.8 3.5.8s2.5-.3 3.5-.8h7.5v7.1c-3.4 1.3-6.9 1.9-10.3 2v-1c0-.4-.3-.8-.8-.8s-.8.3-.8.8v1c-3.3-.1-6.7-.7-10.2-2zm14.4 35.5h-1.5c-.4 0-.8-.3-.8-.8 0-.4.3-.8.8-.8h1.5c.4 0 .8.3.8.8-.1.5-.4.8-.8.8zm0-3.6h-1.5c-.4 0-.8-.3-.8-.8 0-.4.3-.8.8-.8h1.5c.4 0 .8.3.8.8-.1.4-.4.8-.8.8zm0-3.7h-1.5c-.4 0-.8-.3-.8-.8 0-.4.3-.8.8-.8h1.5c.4 0 .8.3.8.8-.1.5-.4.8-.8.8zm2.5 9-.1-11.5c0-.4-.2-.8-.5-1.1-6.8-5.6-5.1-4-11-9.2v-2.8c1.6.8 3.7 1.4 5.8 1.4s4.4-.7 5.8-1.4v2.8l-4.7 4 5 4.1c.7.5 1.1 1.4 1.1 2.3l.1 11.5h-1.5z"/><path d="m47.2 38.9c-.3.3-.5.7-.8 1s-.2.8.1 1.1.8.2 1.1-.1c.3-.4.6-.7.9-1.1.2-.3.2-.8-.2-1-.4-.3-.8-.2-1.1.1z"/><path d="m50 31.3c-.1 1.7-.6 3.4-1.3 5-.2.4 0 .8.4 1s.8 0 1-.4c.8-1.7 1.3-3.6 1.4-5.5 0-.4-.3-.8-.7-.8s-.7.3-.8.7z"/><path d="m18.5 10.1c.4.2.8 0 1-.3 1.1-2.2 2.7-4.2 4.6-5.8.3-.3.4-.7.1-1.1-.3-.3-.7-.4-1.1-.1-2.1 1.7-3.8 3.9-5 6.3-.1.4.1.8.4 1z"/><path d="m17.2 14.6h.1c.4 0 .7-.2.7-.6.1-.5.2-.9.3-1.4.1-.4-.1-.8-.5-.9s-.8.1-.9.5c-.1.5-.3 1-.4 1.5 0 .5.3.9.7.9z"/><path d="m35 18.7c2.4 0 4.3-1.9 4.3-4.3s-1.9-4.3-4.3-4.3-4.3 1.9-4.3 4.3 1.9 4.3 4.3 4.3zm.2-6.4c.4 0 .8.3.8.8s-.3.8-.8.8c-.4 0-.8.3-.8.8 0 .4-.3.8-.8.8s-.8-.3-.8-.8c.1-1.4 1.1-2.4 2.4-2.4z"/><path d="m29.4 24.4c-1.3 0-2.4 1.1-2.4 2.4 0 .4.3.8.8.8s.8-.3.8-.8.4-.9.9-.9.9.4.9.9c0 .4.3.8.8.8s.8-.3.8-.8c-.2-1.3-1.3-2.4-2.6-2.4z"/><path d="m38.9 27.6c.4 0 .8-.3.8-.8s.4-.9.9-.9.9.4.9.9c0 .4.3.8.8.8s.8-.3.8-.8c0-1.3-1.1-2.4-2.4-2.4s-2.4 1.1-2.4 2.4c-.1.5.2.8.6.8z"/></g></svg>