<svg id="Layer_1" enable-background="new 0 0 70 70" height="512" viewBox="0 0 70 70" width="512" xmlns="http://www.w3.org/2000/svg"><g fill="rgb(0,0,0)"><path d="m65.6 65.9h-7.2v-10.3c0-5.2-4.2-9.4-9.3-9.4h-1.6l.7.7c.5.5.8 1.3.8 2s-.3 1.5-.9 2l-.6.6c1.1.7 1.6 2 1.2 3.3l-4.1 11.2h-1.6l4.3-11.7c.2-.5 0-1.1-.5-1.4l-1.8-1.1 2.1-1.9c.5-.5.5-1.3 0-1.8l-.7-.7-5.5 6.5c-.5.6-1.2.9-1.9.9-.3 0-.5 0-.7-.1l-.3.2 1.6 11.1h-1.6l-1.7-11.7.6-.5-1.9-2.4-1.9 2.3.6.5-1.7 11.7h-1.5l1.6-11.1-.3-.2c-.2.1-.5.1-.7.1-.8 0-1.4-.3-1.9-.9l-5.8-6.8-1 1c-.5.5-.5 1.3 0 1.8l2.1 1.9-1.8 1.1c-.5.3-.7.9-.5 1.4l4.3 11.7h-1.5l-4.1-11.2c-.4-1.2 0-2.6 1.2-3.3l-.6-.6c-.5-.5-.9-1.2-.9-2 0-.7.3-1.5.8-2l.7-.7h-1.1c-5.2 0-9.4 4.2-9.4 9.4v10.3h-7.2c-.4 0-.8.3-.8.8s.3.8.8.8h61.2c.4 0 .8-.3.8-.8s-.4-.7-.8-.7z"/><path d="m7.6 56.3c.4 0 .8-.3.8-.8 0-3.4 1.3-6.5 3.7-8.9.3-.3.3-.8 0-1.1s-.8-.3-1.1 0c-2.7 2.7-4.1 6.2-4.1 10 0 .5.3.8.7.8z"/><path d="m7.6 61.6c.4 0 .8-.3.8-.8v-1.4c0-.4-.3-.8-.8-.8s-.7.4-.7.8v1.4c0 .4.3.8.7.8z"/><path d="m48.5 38.2c-.2.3-.4.6-.7.9s-.2.8.1 1.1.8.2 1.1-.1c.2-.3.5-.6.7-.9s.2-.8-.2-1c-.3-.5-.8-.4-1 0z"/><path d="m51.4 31.3c-.3 1.6-.8 3.2-1.6 4.7-.2.4 0 .8.3 1 .4.2.8 0 1-.3.8-1.6 1.4-3.3 1.7-5.1.1-.4-.2-.8-.6-.9-.3-.1-.7.1-.8.6z"/><path d="m51.8 25v-5.6c0-9.2-7.5-16.8-16.8-16.8s-16.8 7.5-16.8 16.8v5.8c0 1.6 1.1 3 2.6 3.3v.2c0 5 2.7 9.4 6.4 11.8v3l-2.3 2c-.2.2-.3.6-.1.8l5.4 6.4c.4.5 1.2.5 1.6 0l3.1-3.8-6.2-4.8v-2.9c1.4 1 4.6 1.4 6.4 1.5 2.6-.1 4.8-.8 6.1-1.5v3l-6.2 4.9 3.1 3.8c.4.5 1.2.5 1.6 0l5.4-6.4c.2-.3.2-.6-.1-.8l-2.3-2v-3.1c3.8-2.6 6.3-7 6.4-11.9 1.5-.4 2.6-1.7 2.6-3.3.1-.3.1-.3.1-.4zm-27.3-14.1c2.2-2.7 5.2-4.4 8.5-4.9.4 0 .8.2.9.6s-.2.8-.6.9c-3 .4-5.7 2-7.6 4.3-.3.3-.7.4-1.1.1-.3-.2-.4-.7-.1-1zm-2.2 3.9c.1-.3.2-.6.4-.9.2-.4.6-.6 1-.4s.5.6.4 1c-.1.3-.2.6-.3.8-.1.4-.6.6-1 .5-.5-.2-.7-.6-.5-1zm25.4 13.5c0 7.1-5.9 13-12.6 13-7 0-12.7-5.6-12.7-12.7v-8c0-.2.1-.4.2-.4.1-.1.2-.1.4-.1h.1c1.7.4 3.5.6 5.4.6 6.2 0 11.7-2.4 13.9-6.2.1-.2.3-.3.5-.3 1.2.2 2.3.8 3.2 1.6 1.1 1.1 1.7 2.5 1.7 4v8.5z"/><path d="m31.1 23.7c.4 0 .8-.3.8-.8s-.3-.8-.8-.8h-4.9c-.4 0-.8.3-.8.8s.3.8.8.8z"/><path d="m29.8 27.7c0 .4.3.8.8.8s.8-.3.8-.8c0-1.5-1.2-2.6-2.6-2.6s-2.8 1.1-2.8 2.6c0 .4.3.8.8.8s.8-.3.8-.8c0-.6.5-1.1 1.1-1.1s1.1.4 1.1 1.1z"/><path d="m41.3 25c-1.5 0-2.6 1.2-2.6 2.6 0 .4.3.8.8.8s.8-.3.8-.8c0-.6.5-1.1 1.1-1.1s1.1.5 1.1 1.1c0 .4.3.8.8.8s.8-.3.8-.8c-.1-1.4-1.3-2.6-2.8-2.6z"/><path d="m43.8 22.2h-4.9c-.4 0-.8.3-.8.8s.3.8.8.8h4.9c.4 0 .8-.3.8-.8s-.4-.8-.8-.8z"/><path d="m36.7 36.9c-.9.9-2.4.9-3.3 0-.3-.3-.8-.3-1.1 0s-.3.8 0 1.1c.7.7 1.7 1.1 2.7 1.1s2-.4 2.7-1.1c.3-.3.3-.8 0-1.1s-.7-.3-1 0z"/><path d="m35 33.2c-.7-.1-4-.5-5.7 1.5-.3.3-.3.8 0 1.1s.8.2 1.1-.1c1.4-1.6 4.4-1 4.5-1h.3s3.1-.6 4.5 1c.1.2.4.3.6.3s.3-.1.5-.2c.3-.3.3-.7.1-1.1-1.9-2-5.2-1.6-5.9-1.5z"/><path d="m35 32.1c1.2 0 2.2-1 2.2-2.2 0-.4-.3-.8-.8-.8s-.8.3-.8.8c0 .4-.3.7-.7.7s-.8-.3-.8-.7-.3-.8-.8-.8-.8.3-.8.8c.3 1.2 1.3 2.2 2.5 2.2z"/></g></svg>