<svg id="Layer_1" enable-background="new 0 0 70 70" height="512" viewBox="0 0 70 70" width="512" xmlns="http://www.w3.org/2000/svg"><g fill="rgb(0,0,0)"><path d="m65.5 65.1h-8.7v-10.7c0-4.2-2.8-7.8-6.7-8.8-.6-.2-1.3-.3-2-.3.1.6.4 2.7 1.4 9 .1 1 .2 2 .2 3v7.8h-1.5v-7.8c0-.9-.1-1.8-.2-2.8-1.3-8.3-1.4-9.2-1.4-9.2h-3.4l.6 7.8c.1 1.5-1.1 2.8-2.6 2.8h-12.4c-1.5 0-2.7-1.3-2.6-2.8l.6-7.8h-3.4l-1.4 9.2c-.1.9-.2 1.9-.2 2.8v7.8h-1.5v-7.8c0-1 .1-2 .2-3l1.4-9c-.7 0-1.3.1-2 .3-3.9 1-6.7 4.6-6.7 8.8v10.6h-8.7c-.4 0-.8.3-.8.8s.3.8.8.8h61c.4 0 .8-.3.8-.8s-.4-.7-.8-.7zm-39.7-5.6h-.8c-.4 0-.8-.3-.8-.8 0-.4.3-.8.8-.8h.8c.4 0 .8.3.8.8s-.4.8-.8.8zm19.2 0h-.8c-.4 0-.8-.3-.8-.8 0-.4.3-.8.8-.8h.8c.4 0 .8.3.8.8-.1.5-.4.8-.8.8z"/><path d="m9.2 57.6c.4 0 .8-.3.8-.8v-2.5c0-3.1 1.2-6.1 3.2-8.4.3-.3.3-.8 0-1.1s-.8-.3-1.1 0c-2.3 2.6-3.6 5.9-3.6 9.4v2.5c0 .6.3.9.7.9z"/><path d="m9.2 61.6c.4 0 .8-.3.8-.8v-.9c0-.4-.3-.8-.8-.8s-.8.3-.8.8v.9c.1.5.4.8.8.8z"/><path d="m48.1 38.4c-.1.2-.3.4-.4.6-.2.3-.1.8.2 1s.8.1 1-.2c.2-.2.3-.5.4-.7.2-.4.1-.8-.3-1-.2-.1-.7 0-.9.3z"/><path d="m50 33.1c-.2 1.1-.5 2.2-.9 3.3-.2.4 0 .8.4 1s.8 0 1-.4c.5-1.2.8-2.4 1-3.6.1-.4-.2-.8-.6-.9s-.8.2-.9.6z"/><path d="m35 37.6c1 0 2-.4 2.7-1.1.3-.3.3-.8 0-1.1s-.8-.3-1.1 0c-.9.9-2.4.9-3.3 0-.3-.3-.8-.3-1.1 0s-.3.8 0 1.1c.8.8 1.8 1.1 2.8 1.1z"/><path d="m35 33.5c.4 0 .8-.3.8-.8v-1.9c0-.4-.3-.8-.8-.8s-.8.3-.8.8v1.9c0 .4.4.8.8.8z"/><path d="m18.7 22.3v2c0 .4.3.8.8.8h.5c-.4.6-.6 1.3-.6 2 0 1.8 1.3 3.3 3 3.6v.1c0 4.6 2.6 8.7 6.4 10.9v3.6h-.3l-.6 7.9c0 .3.1.6.3.8s.5.3.8.3h12.3c.3 0 .6-.1.8-.3s.3-.5.3-.8l-.6-7.9h-.3v-3.6c3.8-2.2 6.4-6.3 6.4-10.9v-.1c1.7-.4 3-1.8 3-3.6 0-.8-.2-1.5-.6-2h.5c.4 0 .8-.3.8-.8v-2c0-.4-.3-.8-.8-.8h-31.4c-.4 0-.7.3-.7.8zm21.1 23v.3l-4.8 4.5-4.8-4.6v-.3-2.5c3 1 6.4 1 9.6 0zm-16-20.3h22.4v5.8c-.1 6.1-5.1 11.1-11.2 11.1s-11.2-4.9-11.2-11.1z"/><path d="m39.2 30.6c.4 0 .8-.3.8-.8 0-.4.3-.7.7-.7s.7.3.7.7.3.8.8.8.8-.3.8-.8c0-1.2-1-2.2-2.2-2.2s-2.2 1-2.2 2.2c-.1.5.2.8.6.8z"/><path d="m27.9 30.6c.4 0 .8-.3.8-.8 0-.4.3-.7.7-.7s.7.3.7.7.3.8.8.8.8-.3.8-.8c0-1.2-1-2.2-2.2-2.2s-2.2 1-2.2 2.2c-.2.5.2.8.6.8z"/><path d="m22.3 5.5c.3-.2.5-.5.8-.7.3-.3.4-.7.1-1.1-.3-.3-.7-.4-1.1-.1-.3.3-.6.5-.9.8s-.3.8 0 1.1c.4.2.8.3 1.1 0z"/><path d="m15.9 17.2c.4.1.8-.3.8-.6.4-3 1.5-5.8 3.2-8.3.2-.3.2-.8-.2-1-.3-.2-.8-.2-1 .2-1.9 2.7-3.1 5.7-3.5 9-.1.3.2.6.7.7z"/><path d="m29.4 12.1c.4-2.8 2.7-4.9 5.6-4.9s5.2 2.1 5.6 4.9h8c-2.6-5.2-7.9-8.4-13.6-8.4-6 0-11.1 3.4-13.6 8.4z"/><path d="m19.8 20h30.4v-1.1c0-1.9-.4-3.6-1-5.3h-8.7c-.4 2.8-2.7 4.9-5.6 4.9s-5.2-2.1-5.6-4.9h-8.7c-.6 1.6-1 3.4-1 5.3v1.1z"/><path d="m34.6 15.8c.4.2.8 0 1-.3l1.1-2.3c.1-.2.1-.5 0-.7s-.4-.4-.6-.4h-.9l.5-.9c.2-.4.1-.8-.3-1s-.8-.1-1 .3l-1.2 2.1c-.1.2-.1.5 0 .8s.4.4.7.4h1l-.6 1.2c-.2.2-.1.6.3.8z"/></g></svg>