<svg id="Layer_1" enable-background="new 0 0 70 70" height="512" viewBox="0 0 70 70" width="512" xmlns="http://www.w3.org/2000/svg"><g fill="rgb(0,0,0)"><path d="m7 58.3c.4 0 .8-.3.8-.8v-3.1c0-1.2.2-2.5.5-3.6.1-.4-.1-.8-.5-.9s-.8.1-.9.5c-.4 1.3-.6 2.7-.6 4.1v3.1c-.1.4.3.7.7.7z"/><path d="m7 62.6c.4 0 .8-.3.8-.8v-1.1c-.1-.3-.4-.7-.8-.7s-.8.3-.8.8v1.1c0 .4.4.7.8.7z"/><path d="m56.1 43.2c2.2 1.4 4 3.5 5.1 5.9.1.3.4.4.7.4.1 0 .2 0 .3-.1.4-.2.6-.6.4-1-1.2-2.7-3.2-5-5.6-6.6-.3-.2-.8-.1-1 .2-.4.5-.3 1 .1 1.2z"/><path d="m52.5 41.6c.3.1.7.2 1 .3h.3c.3 0 .6-.2.7-.5.1-.4-.1-.8-.5-1-.4-.1-.7-.2-1.1-.3s-.8.1-.9.5c-.2.5.1.9.5 1z"/><path d="m16.3 52.7c0 1 .8 1.8 1.8 1.8s1.8-.8 1.8-1.8-.8-1.8-1.8-1.8c-1.1.1-1.8.9-1.8 1.8z"/><path d="m66.2 67c0 .4-.3.8-.8.8h-61c-.4 0-.8-.3-.8-.8 0-.4.3-.8.8-.8h6.6v-11.7c0-5 3.6-9.1 8.3-9.9-1.1 1.3-1.8 3-2 5-1.4.3-2.5 1.6-2.5 3.2 0 1.8 1.5 3.3 3.3 3.3s3.3-1.5 3.3-3.3c0-1.5-1.1-2.8-2.5-3.2.3-2.2 1.1-3.9 2.6-5.1.1 0 .1-.1.2-.1h2.3v10c0 .3.2.6.4.7l3.7 1.7-2.4 2.1c-.3.3-.3.7-.1 1l4.2 6.4h1.8l-4.4-6.7 2.7-2.4c.2-.2.3-.4.2-.7 0-.3-.2-.5-.4-.6l-4.3-2v-8.9l1.6-.3 7.1 18.5c.1.3.4.5.7.5s.6-.2.7-.5l7.1-18.5 1.6.3v8.9l-4.3 2c-.2.1-.4.3-.4.6s0 .5.2.7l2.7 2.4-4.4 6.7h1.8l4.2-6.4c.2-.3.1-.7-.1-1l-2.4-2.1 3.7-1.7c.3-.1.4-.4.4-.7v-10h2.2c.1 0 .1.1.2.1 1.4 1.1 2.3 2.7 2.6 4.7-2.2.5-3.7 2.5-3.7 4.8v4.1c0 .9.7 1.6 1.6 1.6h1.5c.4 0 .8-.3.8-.8 0-.4-.3-.8-.8-.8h-1.2s-.1 0-.1-.1v-4.1c0-1.6 1.1-3 2.6-3.4 1.1-.2 2.3.1 3 .9.6.6 1 1.4 1 2.3v4.3s0 .1-.1.1h-1.2c-.4 0-.8.3-.8.8 0 .4.3.8.8.8h1.2c.9 0 1.6-.7 1.6-1.6v-4.3c0-1.3-.5-2.5-1.4-3.4-.8-.8-1.8-1.3-3-1.4-.2-1.9-.9-3.4-1.9-4.6 4.8.8 8.5 4.9 8.5 10v11.8h6.5c.4.1.7.4.7.8z"/><path d="m37.6 36.3c.3-.3.3-.8 0-1.1s-.8-.3-1.1 0c-.8.8-2.2.8-3 0-.3-.3-.8-.3-1.1 0s-.3.8 0 1.1c.7.7 1.6 1.1 2.6 1.1s1.9-.4 2.6-1.1z"/><path d="m35 33.2c.4 0 .8-.3.8-.8v-1.9c0-.4-.3-.8-.8-.8s-.8.3-.8.8v1.9c0 .5.4.8.8.8z"/><path d="m27 27.1c-.3.3-.3.8 0 1.1s.8.3 1.1 0c.7-.7 1.9-.7 2.7 0 .3.3.8.3 1.1 0s.3-.8 0-1.1c-1.5-1.4-3.6-1.4-4.9 0z"/><path d="m39.3 28.1c.7-.7 1.9-.7 2.7 0 .3.3.8.3 1.1 0s.3-.8 0-1.1c-1.3-1.3-3.5-1.3-4.8 0-.3.3-.3.8 0 1.1.2.3.7.3 1 0z"/><path d="m21.6 44.4c2.8-1.9 6.7-1.6 7.9-1.4v1.4h-.8-.1l6.4 16.4 6.3-16.4h-.1-.8v-1.4c1.4-.2 5.1-.4 7.7 1.4h.8c.5 0 1.1 0 1.6.1-.4-.4-.8-.8-1.3-1.2-2.5-1.9-5.9-2.1-8-1.9 7.1-4.1 6.4-11.6 6.4-11.7 2.1-.4 3.7-2.2 3.7-4.4v-6.6c0-4.4-1.7-8.5-4.8-11.6-3-3.2-7.1-4.9-11.5-4.9-9.1 0-16.4 7.4-16.4 16.4v6.6c0 2.2 1.6 4 3.7 4.4v.7c0 4.7 2.6 8.9 6.4 11-2-.1-5.5-.1-8.2 1.9-.5.4-.9.8-1.3 1.2.6-.1 1.2-.2 1.8-.2h.6zm17.3 0-3.9 3.9-3.9-3.9v-1.9c2.3.7 5.3.8 7.9 0v1.9zm-15.3-30.8c.2-.4.3-.7.5-1 .2-.4.6-.5 1-.3s.5.7.3 1-.3.6-.5.9c-.1.3-.4.5-.7.5-.1 0-.2 0-.3-.1-.3-.2-.4-.6-.3-1zm10.2-6.6c.1.4-.2.8-.6.9-2.3.4-4.4 1.5-6 3.1-.2.1-.4.2-.5.2-.2 0-.4-.1-.5-.2-.3-.3-.3-.8 0-1.1 1.8-1.8 4.1-3.1 6.8-3.5.4-.1.8.2.8.6zm16.1 18.3c0 1.4-.9 2.5-2.2 2.9v-5.7c1.3.2 2.2 1.4 2.2 2.8zm-27.6 2.8c-1.3-.3-2.2-1.5-2.2-2.9 0-1.4 1-2.5 2.2-2.8zm1.5 2.3c0-1.2 0-9.2 0-8.7 3.2 1.6 7.1 1.5 10.3-.3 2 1.7 4.5 2.6 7.1 2.6 1.8 0 3.5-.4 5-1.2 0 .1 0 7.7 0 7.6 0 6.2-5.1 11.2-11.2 11.2-6.2 0-11.2-5-11.2-11.2z"/></g></svg>