<svg id="Layer_1" enable-background="new 0 0 70 70" height="512" viewBox="0 0 70 70" width="512" xmlns="http://www.w3.org/2000/svg"><g fill="rgb(0,0,0)"><path d="m9.3 58.7c.4 0 .8-.3.8-.8v-3c0-2.1.5-4.1 1.5-5.9.2-.4.1-.8-.3-1s-.8-.1-1 .3c-1.1 2-1.7 4.3-1.7 6.6v3c-.1.4.3.8.7.8z"/><path d="m9.3 63.3c.4 0 .8-.3.8-.8v-1c0-.4-.3-.8-.8-.8s-.8.3-.8.8v1c0 .5.4.8.8.8z"/><path d="m36.8 34.8c-1 1-2.6 1-3.6 0-.3-.3-.8-.3-1.1 0s-.3.8 0 1.1c.8.7 1.9 1.1 2.9 1.1s2.1-.4 2.8-1.2c.3-.3.3-.8 0-1.1s-.7-.2-1 .1z"/><path d="m35 32.6c.4 0 .8-.3.8-.8v-2.3c0-.4-.3-.8-.8-.8s-.8.3-.8.8v2.3c0 .4.4.8.8.8z"/><path d="m41.2 25.7c-1.3 0-2.3 1-2.3 2.3 0 .4.3.8.8.8s.8-.3.8-.8.4-.8.8-.8c.5 0 .8.4.8.8s.3.8.8.8.8-.3.8-.8c-.2-1.2-1.2-2.3-2.5-2.3z"/><path d="m28.9 25.7c-1.3 0-2.3 1-2.3 2.3 0 .4.3.8.8.8s.8-.3.8-.8.4-.8.8-.8c.5 0 .8.4.8.8s.3.8.8.8.8-.3.8-.8c-.2-1.2-1.2-2.3-2.5-2.3z"/><path d="m25.4 42.6h5.1c.1 0 .3.1.4.1-2.4 1.4-3.9 4-3.9 6.9v4c0 1 1.1 1.6 2 1l6.1-4.2 6.1 4.2c.8.6 2 0 2-1v-4c0-2.2-.9-4.2-2.4-5.7-.5-.5-1-.9-1.6-1.2.1 0 .3-.1.4-.1h5.1c4.4 0 8-3.6 8-8v-14.3c0-4.9-2-9.3-5.2-12.5s-7.6-5.2-12.5-5.2c-9.8 0-17.7 7.9-17.7 17.6v14.3c.1 4.5 3.6 8.1 8.1 8.1zm13.3 1.4c0 2-1.6 3.7-3.7 3.7-1 0-1.9-.4-2.6-1.1s-1.1-1.6-1.1-2.6v-1.1c1.2.3 2.4.5 3.7.5s2.5-.2 3.7-.5zm-3.7-2.1c-3.3 0-6.5-1.3-8.8-3.7-2.4-2.4-3.7-5.5-3.7-8.8v-8.9c3.4.1 8-2 10-4.7 2.1 5 10.1 9 15 9.2v4.4c0 6.9-5.6 12.5-12.5 12.5zm12.6-27c.4-.1.8.1 1 .5.2.6.4 1.2.5 1.9.1.4-.2.8-.6.9-.1 0-.1 0-.2 0-.3 0-.6-.2-.7-.6-.1-.6-.3-1.1-.5-1.7-.1-.4.1-.9.5-1zm-12.6-9c4.7 0 9.1 2.3 11.8 6.2.2.3.2.8-.2 1-.1.1-.3.1-.4.1-.2 0-.5-.1-.6-.3-2.4-3.5-6.4-5.5-10.6-5.5-.4 0-.8-.3-.8-.8.1-.4.4-.7.8-.7z"/><path d="m63.4 65.9h-6.7v-11c0-5-4.1-9.1-9.1-9.1h-3.9c.5 1.2.8 2.5.8 3.8v4c0 1.5-1.2 2.8-2.8 2.8-.5 0-1.1-.2-1.5-.5l-4.5-3.1v13h-1.5v-1.4h-1.9c-.4 0-.8-.3-.8-.8s.3-.8.8-.8h1.9v-2.3h-1.9c-.4 0-.8-.3-.8-.8s.3-.8.8-.8h1.9v-1.9h-1.9c-.4 0-.8-.3-.8-.8s.3-.8.8-.8h1.9v-2.6l-4.5 3.1c-.5.3-1 .5-1.6.5-.7 0-1.4-.3-1.9-.8s-.8-1.2-.8-2v-4c0-1.3.3-2.6.8-3.8h-3.9c-5 0-9.1 4.1-9.1 9.1v11h-6.6c-.4 0-.8.3-.8.8s.3.8.8.8h56.7c.4 0 .8-.3.8-.8s-.3-.8-.7-.8zm-20.3-6.1h1l3.7-3.7c.3-.3.8-.3 1.1 0l3.7 3.7h1c.4 0 .8.3.8.8 0 .4-.3.8-.8.8h-10.5c-.4 0-.8-.3-.8-.8s.3-.8.8-.8z"/></g></svg>