<svg id="Layer_1" enable-background="new 0 0 70 70" height="512" viewBox="0 0 70 70" width="512" xmlns="http://www.w3.org/2000/svg"><g fill="rgb(0,0,0)"><path d="m62.2 65.5h-3.9v-11.1c0-1.4-.9-2.6-2.2-3 0 0 0 0-.1 0-.6-.2-2.6-.8-8.2-2.7-3.1 2.5-5.8 5.9-11.8 6.2v10.7h-1.5v-10.8c-6.2-.3-10.5-4.7-11.3-6.3-4.1 1.3-9 2.9-9 2.9-1.3.4-2.2 1.7-2.2 3v11.1h-4.1c-.4 0-.8.3-.8.8s.4.7.8.7h54.3c.4 0 .8-.3.8-.8s-.4-.7-.8-.7zm-17.8-8.2h9.4c.4 0 .8.3.8.8 0 .4-.3.8-.8.8h-.6c-.3 2-2.1 3.5-4.1 3.5-2.1 0-3.8-1.5-4.2-3.5h-.6c-.4 0-.8-.3-.8-.8.2-.4.5-.8.9-.8zm-28.2 0h9.4c.4 0 .8.3.8.8 0 .4-.3.8-.8.8h-.6c-.4 2-2.1 3.5-4.1 3.5-2.1 0-3.8-1.5-4.2-3.5h-.6c-.4 0-.8-.3-.8-.8.2-.4.5-.8.9-.8z"/><path d="m18.5 46.5h.2l.9-.3c.4-.1.6-.6.5-.9s-.5-.6-.9-.5l-1 .2c-.4.1-.6.6-.5.9.1.4.4.6.8.6z"/><path d="m7.8 59.2c.4 0 .8-.3.8-.8v-4c0-2.8 1.8-5.2 4.4-6.1l2.9-.9c.4-.1.6-.6.5-.9-.1-.4-.5-.6-.9-.5l-2.9.9c-3.4 1.1-5.5 4.1-5.5 7.5v4c0 .4.3.8.7.8z"/><path d="m47 41.8c-.2.2-.4.4-.5.6-.3.3-.3.8 0 1.1s.8.3 1.1 0c.2-.2.4-.4.6-.7.3-.3.2-.8-.1-1.1s-.8-.2-1.1.1z"/><path d="m50.3 35.2c-.4 1.6-1 3-1.8 4.4-.2.4-.1.8.3 1s.8.1 1-.3c.9-1.5 1.6-3.1 2-4.8.1-.4-.1-.8-.5-.9-.4 0-.9.2-1 .6z"/><path d="m34.5 16.9c4.6 0 9.4.8 14.3 2.4h.1l.9-9c0-9.9-29.6-9.9-29.6 0l.9 9c4.3-1.6 8.8-2.4 13.4-2.4zm-4.6-10.2c.2 0 .3-.1.5-.1.4-.1.8.2.9.6s-.2.8-.6.9c-.2 0-.3.1-.5.1h-.1c-.4 0-.7-.3-.7-.6-.2-.4.1-.8.5-.9zm-6.4 3.5c.3-1.4 2.8-2.4 3.8-2.8.4-.1.8.1.9.5s-.1.8-.5.9c-1.8.6-2.6 1.3-2.8 1.6l.2 2c0 .4-.3.8-.7.8 0 0 0 0-.1 0-.4 0-.7-.3-.7-.7l-.2-2.1c.1-.1.1-.2.1-.2z"/><path d="m21.9 32.4c.2 4.2 2.3 8.1 6.1 10.5v4c-1.2.4-3.4 1.1-3.5 1.1-.1-.1 3.8 5.3 10.6 5.3s10.5-5 10.8-5.2c-4.9-1.6 4.1 1.3-3.7-1.2v-4.1c3.4-2.3 5.7-6.1 6.1-10.4 1.8-.3 3.2-1.9 3.2-3.8 0-1.6-1-2.9-2.3-3.5.4-.3.7-.7.8-1.2.4-1.3-.3-2.7-1.6-3.2-9.6-3.1-18.6-3.1-26.7 0-1.3.5-1.9 2-1.4 3.2.2.4.4.8.8 1-1.4.6-2.3 2-2.3 3.5-.1 2.1 1.3 3.7 3.1 4zm18.8 11.4v3.6c-3.3 2.6-8 2.6-11.3 0v-3.6c3.5 1.6 7.7 1.7 11.3 0zm-5.6-.3c-6.5 0-11.7-5.2-11.7-11.7v-6.3h.2c7.1-2.8 14.7-2.8 23.3 0v5.9c-.1 6.3-5.2 12.1-11.8 12.1z"/><path d="m31.3 26.9c-1.4-1.4-3.6-1.3-5 0-.3.3-.3.8 0 1.1.1.1.3.2.5.2s.4-.1.5-.2c.8-.8 2.1-.8 2.8 0 .3.3.8.3 1.1 0 .4-.4.4-.8.1-1.1z"/><path d="m38.9 26.9c-.3.3-.3.8 0 1.1.1.1.3.2.5.2s.4-.1.5-.2c.8-.8 2.1-.8 2.8 0 .3.3.8.3 1.1 0s.3-.8 0-1.1c-1.3-1.4-3.6-1.4-4.9 0z"/><path d="m35.1 33.3c.6 0 1.1-.2 1.5-.6.3-.3.3-.8 0-1.1s-.8-.3-1.1 0c-.1.1-.3.2-.4.2s-.3-.1-.4-.2c-.3-.3-.8-.3-1.1 0s-.3.8 0 1.1c.4.4.9.6 1.5.6z"/><path d="m38 36.3c-.8.8-1.8 1.2-2.9 1.2s-2.1-.4-2.9-1.2c-.3-.3-.8-.3-1.1 0s-.3.8 0 1.1c1.1 1.1 2.5 1.6 4 1.6s2.9-.6 4-1.6c.3-.3.3-.8 0-1.1s-.8-.3-1.1 0z"/></g></svg>