<svg id="Layer_1" enable-background="new 0 0 70 70" height="512" viewBox="0 0 70 70" width="512" xmlns="http://www.w3.org/2000/svg"><g fill="rgb(0,0,0)"><path d="m5.6 59.6c.4 0 .8-.3.8-.8v-1.1c0-3 .8-5.9 2.4-8.4.2-.4.1-.8-.2-1-.4-.2-.8-.1-1 .2-1.7 2.7-2.7 5.9-2.7 9.2v1.1c0 .5.3.8.7.8z"/><path d="m5.6 63.7c.4 0 .8-.3.8-.8v-1.4c0-.4-.3-.8-.8-.8s-.8.3-.8.8v1.5c.1.4.4.7.8.7z"/><path d="m28.7 49.4.9 2.9c.1.3.5.4.8.2l4.7-4-6.8-2.8c0 1.3.2 2.5.4 3.7z"/><path d="m35.1 48.5c.1.1 4.8 4.1 4.7 4 .3.2.7.1.8-.2l1.7-4.4 1.1-2.8v-4.1c3-2.4 5-6.2 5-10.4 1.6-.4 2.9-1.8 2.9-3.6 0-1.6-1-2.9-2.4-3.5 1.4-.7 2.3-1.5 2.3-2.3 0-2.5-7-4.4-15.6-4.4s-15.6 2-15.6 4.4c0 .7.6 1.4 1.8 2.1v.1c-1.6.4-2.9 1.8-2.9 3.6s1.2 3.2 2.9 3.6c0 1.2.2 2.3.5 3.5-1.4 2.4-3.1 6.8-1 12.1 2.9 7.1 6.2 11.3 3.2 15.4-.5.6-.1 1.6.6 1.8.4.1.9 0 1.2-.3 1.2-1.2 3.9-4.4 2.4-8.6-1.4-3.9-2.6-7.5-1.5-13.2 2.3 1.7 5 2.6 7.9 2.6 2.1 0 4-.5 5.7-1.3 1-.4.7-.3.9-.4.1 0 .1-.1.2-.1v3.7zm-8.4-9.6c-2.2-2.2-3.5-5.2-3.5-8.4v-6.6c2.8 1 7.3 1.7 12.3 1.7 4.5 0 8.5-.5 11.3-1.4v6.3c0 6.5-5.3 11.8-11.8 11.8-3.1 0-6.1-1.2-8.3-3.4z"/><path d="m48.6 43.3-1.3 2.5c-.2.3 0 .8.3 1l7.9 4.1c.3.2.8 0 1-.3l1.3-2.5c.2-.3 0-.8-.3-1l-7.9-4.1c-.4-.2-.8-.1-1 .3z"/><path d="m13.7 50.6c.2.3.6.5 1 .3l5.7-3c-.2-.4-.3-.8-.5-1.2-.4-1-.7-2-.9-2.9l-6.3 3.3c-.3.2-.5.6-.3 1z"/><path d="m41.3 3.4c1.7.4 3.9.6 6.3.7.4 0 .7-.3.7-.7s-.3-.8-.7-.8c-2.3-.1-4.3-.4-6-.8-.4-.1-.8.2-.9.6s.2.9.6 1z"/><path d="m37.8 2.1c.1.1.3.2.5.3.1 0 .2.1.3.1.3 0 .6-.2.7-.4.2-.4 0-.8-.4-1-.2-.1-.3-.2-.4-.2-.4-.2-.8-.1-1 .3-.2.2 0 .7.3.9z"/><path d="m21.2 17.7c3.6-1.9 10-2.5 14.4-2.5s10.8.6 14.4 2.5l3-3.5c.5-.5.4-1.4-.2-1.8-2.1-1.6-3.7-3.6-4.4-4.5-.2-.3-.6-.5-.9-.5-6.8-.3-10.1-1.8-11.3-2.5-.4-.2-.8-.2-1.2 0-1.2.7-4.5 2.2-11.3 2.5-.4 0-.7.2-1 .5-.7.9-2.2 2.9-4.4 4.5-.6.4-.7 1.3-.2 1.8z"/><path d="m26.8 28c-.3.3-.3.8 0 1.1s.8.3 1.1 0c.6-.6 1.5-.6 2.1 0 .3.3.8.3 1.1 0s.3-.8 0-1.1c-1.2-1.2-3.1-1.2-4.3 0z"/><path d="m43.3 28c-1.2-1.1-3.1-1.1-4.2 0-.3.3-.3.8 0 1.1s.8.3 1.1 0c.6-.6 1.5-.6 2.1 0 .3.3.8.3 1.1 0 .2-.4.2-.8-.1-1.1z"/><path d="m35.1 33.6c.7 0 1.3-.4 1.8-1.1.2-.4.1-.8-.2-1-.4-.2-.8-.1-1 .2-.3.5-.6.5-.9 0-.2-.4-.7-.5-1-.2-.4.2-.5.7-.2 1 .1.7.8 1.1 1.5 1.1z"/><path d="m37 35.8c-.4-.1-.8.1-.9.5-.1.5-.6.8-1 .8s-.9-.3-1-.8c-.1-.4-.5-.6-.9-.5s-.6.5-.5.9c.3 1.1 1.3 1.8 2.5 1.8s2.1-.7 2.5-1.8c0-.3-.3-.8-.7-.9z"/><path d="m64.4 67.8h-3.9v-10c0-2.7-.9-5.2-2.3-7.2l-.4.8c-.6 1.1-1.9 1.5-3 .9l-7.9-4.1c-.5-.3-.9-.7-1.1-1.3-.1-.5-.1-1 0-1.5h-1c-.3.8-3 7.7-3.1 7.9-.6.9-1.8 1.2-2.6.7l-.5 1 2.9 12.7h-1.5l-3-12.9.9-2c-.1-.1-3-2.6-2.8-2.4l-2.8 2.4.9 2-3 12.9h-1.5l2.8-12.7-.5-1.2c-.3.2-.5.2-.8.3 1.7 4.9-1.4 8.6-2.8 10-.5.5-1.2.8-1.9.8-.3 0-.5 0-.8-.1-.8-.3-1.5-.9-1.8-1.7s-.1-1.7.4-2.4c2.1-2.9 0-6.1-2.3-11.4l-5.7 3c-1.1.6-2.4.1-3-.9l-.4-.8c-1.5 2-2.3 4.5-2.3 7.2v10h-3.9c-.4 0-.8.3-.8.8 0 .4.3.8.8.8h58.7c.4 0 .8-.3.8-.8-.1-.5-.4-.8-.8-.8zm-46.1-4c0-.4.3-.8.8-.8.4 0 .8.3.8.8v4h-1.5v-4zm32 0c0-.4.3-.8.8-.8.4 0 .8.3.8.8v4h-1.5v-4z"/></g></svg>