<svg id="Layer_1" enable-background="new 0 0 70 70" height="512" viewBox="0 0 70 70" width="512" xmlns="http://www.w3.org/2000/svg"><g fill="rgb(0,0,0)"><path d="m13.7 45c.4-.2.8-.4 1.2-.5.4-.2.6-.6.4-1s-.6-.6-1-.4-.9.4-1.3.6-.5.6-.3 1c.2.3.6.5 1 .3z"/><path d="m4.2 55.1c.4.1.8-.1 1-.5 1.1-3.2 3.2-6 5.9-8 .3-.2.4-.7.2-1s-.7-.4-1-.2c-3 2.2-5.2 5.2-6.4 8.8-.3.3-.1.8.3.9z"/><path d="m44.9 3.8c3.5 1.8 6.4 4.4 8.6 7.7.1.2.4.3.6.3.1 0 .3 0 .4-.1.3-.2.4-.7.2-1-2.3-3.5-5.4-6.3-9.2-8.2-.4-.2-.8 0-1 .3-.1.3.1.8.4 1z"/><path d="m40.9 2.2c.3.1.6.2 1 .3h.2c.3 0 .6-.2.7-.5.1-.4-.1-.8-.5-.9-.3-.1-.7-.2-1-.3-.4-.1-.8.1-.9.5s.1.8.5.9z"/><path d="m35 39.6c7.8 0 14.1-6.3 14.1-14.1v-2.1c0-3.9-1.6-7.4-4.1-9.9-2.6-2.6-6.1-4.1-10-4.1-7.8 0-14.1 6.3-14.1 14.1v2.1c0 3.9 1.6 7.4 4.1 10s6.1 4 10 4zm-1-26.9h1c.4 0 .8.3.8.8s-.3.8-.8.8c-.3 0-.6 0-.9 0-.4 0-.8-.3-.8-.7 0-.5.3-.9.7-.9zm-9.8 10.8c0-4.3 2.5-8.2 6.5-9.9.4-.2.8 0 1 .4s0 .8-.4 1c-3.4 1.5-5.6 4.8-5.6 8.6 0 .4-.3.8-.8.8s-.7-.5-.7-.9z"/><path d="m66.2 67.8h-3.7v-7.8c0-7-5.5-12.8-12.4-13.3-.1 0-.2 0-.3 0-.1 1-.2 2.1-.2 3.1 0 7.2 3.1 13.6 8.1 18h-2.2c-4.7-4.8-7.4-11.2-7.4-18 0-1.1 0-2.1.2-3.2h-1.3v-4.1c4.3-2.3 7.3-6.7 7.5-11.9h2.3c.6 0 1.2-.5 1.2-1.2v-9.2c0-.7-.5-1.2-1.2-1.2h-2.8c-2-8.7-9.8-15.1-19-15.1-9.3 0-17 6.5-19 15.1h-2.8c-.6 0-1.2.5-1.2 1.2v9.2c0 .6.5 1.2 1.2 1.2h2.3c.2 5 3 9.3 7.1 11.6v4.4h-.9c.1 1 .2 2.1.2 3.2 0 6.8-2.7 13.2-7.4 18h-2.2c5-4.4 8.1-10.9 8.1-18 0-1-.1-2.1-.2-3.1-.1 0-.2 0-.3 0-6.9.5-12.4 6.2-12.4 13.3v7.8h-3.7c-.4 0-.8.3-.8.8s.3.8.8.8h62.3c.4 0 .8-.3.8-.8s-.3-.8-.7-.8zm-27.9-13.2h8.3v3.4h-8.3zm7.2-11.5v3.9c0 1.7-4.3 3-9.7 3.2v-6.1h4.6c1.8 0 3.6-.4 5.1-1zm-28.6-13.2v-6.4c0-10 8.1-18.1 18.1-18.1s18.1 8.1 18.1 18.1v6.4c0 7-5.7 12.7-12.7 12.7h-10.7c-7 0-12.8-5.6-12.8-12.7zm12.7 14.2h4.6v6.1c-5.6 0-10.2-1.4-10.2-3.1v-4.1c1.6.6 3.7 1.1 5.6 1.1zm2.5 22.4c-.4 0-.8-.3-.8-.8s.3-.8.8-.8h2.1v-2.3h-2.1c-.4 0-.8-.3-.8-.8s.3-.8.8-.8h2.1v-2.3h-2.1c-.4 0-.8-.3-.8-.8s.3-.8.8-.8h2.1v-2.3h-2.1c-.4 0-.8-.3-.8-.8s.3-.8.8-.8h2.1v-1.9h.5 1v16h-1.5v-1.3h-2.1z"/></g></svg>