<svg id="Layer_1" enable-background="new 0 0 70 70" height="512" viewBox="0 0 70 70" width="512" xmlns="http://www.w3.org/2000/svg"><g fill="rgb(0,0,0)"><path d="m59.3 48.6-5.5-2.9c-.4-.2-.8-.1-1 .3s-.1.8.3 1l5.5 2.9c2.3 1.2 3.8 3.6 3.8 6.3 0 .4.3.7.7.7s.7-.3.7-.7c0-3.2-1.7-6.1-4.5-7.6z"/><path d="m48.7 44.6 1.1.6c.1.1.2.1.3.1.3 0 .5-.1.6-.4.2-.4.1-.8-.3-1l-1.1-.6c-.4-.2-.8-.1-1 .3-.1.4.1.8.4 1z"/><path d="m62.8 67.5h-3.5v-11.3c0-1.5-.8-2.8-2.1-3.5l-10.1-5.4c0 .1-.1.3-.1.4-1.3 2.7-3.3 5.1-6 7.4-.4.3-.8.5-1.3.5s-1-.2-1.4-.5v.2l2.9 12.4h-1.5l-2.9-12.4.5-2.1c-.5-1-1.2-2-2.4-2.4-1.2.4-2 1.4-2.4 2.4l.5 2-2.9 12.4h-1.5l2.9-12.4v-.2c-.4.3-.8.5-1.4.5-.5 0-.9-.2-1.3-.5-2.7-2.2-4.7-4.6-6-7.4-.1-.1-.1-.2-.1-.4l-10.1 5.4c-1.3.7-2.1 2-2.1 3.5v11.4h-3.6c-.4 0-.7.3-.7.7s.3.7.7.7h55.9c.4 0 .7-.3.7-.7 0-.3-.3-.7-.7-.7zm-47.8-2.1c0 .4-.3.7-.7.7s-.7-.3-.7-.7v-5.5c0-.4.3-.7.7-.7s.7.3.7.7zm0-8.6c0 .4-.3.7-.7.7s-.7-.3-.7-.7v-.6c0-.4.3-.7.7-.7s.7.3.7.7z"/><path d="m32.1 34.1c-.3-.3-.7-.3-1 0s-.3.7 0 1c1 1 2.4 1.6 3.8 1.6s2.8-.5 3.8-1.6c.3-.3.3-.7 0-1s-.7-.3-1 0c-1.6 1.5-4.1 1.5-5.6 0z"/><path d="m34.8 31.7c.4 0 .7-.3.7-.7v-1.8c0-.4-.3-.7-.7-.7s-.7.3-.7.7v1.8c0 .3.3.7.7.7z"/><path d="m29.5 26.3c.5 0 .9.4.9.9 0 .4.3.7.7.7s.7-.3.7-.7c0-1.3-1.1-2.4-2.4-2.4s-2.4 1.1-2.4 2.4c0 .4.3.7.7.7s.7-.3.7-.7c.2-.5.6-.9 1.1-.9z"/><path d="m40.1 24.8c-1.3 0-2.4 1.1-2.4 2.4 0 .4.3.7.7.7s.7-.3.7-.7c0-.5.4-.9.9-.9s.9.4.9.9c0 .4.3.7.7.7s.7-.3.7-.7c.2-1.3-.8-2.4-2.2-2.4z"/><path d="m31.7 23.4c.4 0 .7-.3.7-.7s-.3-.7-.7-.7h-4.3c-.4 0-.7.3-.7.7s.3.7.7.7z"/><path d="m38 23.4h4.3c.4 0 .7-.3.7-.7s-.3-.7-.7-.7h-4.3c-.4 0-.7.3-.7.7s.3.7.7.7z"/><path d="m47.9 31.8h1.1c.5 0 1-.4 1-1v-10c0-.3-.1-.6-.4-.8v-.5c0-8.2-6.6-14.8-14.8-14.8-8.1 0-14.8 6.6-14.8 14.8v.5c-.2.2-.4.4-.4.8v10c0 .5.4 1 1 1h1.1c.7 3.8 3 7 6.1 8.9v3.7s-.1-.1-.1-.1c-1.5.2-2.6.9-3.6 2-.1.2-.2.5-.1.7 1.3 2.7 3.2 4.9 5.6 6.9.3.3.9.1 1-.3.5-1.4 1.6-3.9 4.2-4.4-2.1-.9-4-1.9-5.5-3.3v-4.4c1.6.7 3.6 1.2 5.5 1.2 2 0 3.9-.5 5.5-1.2v4.4c-1.5 1.3-3.4 2.4-5.5 3.3 2.6.5 3.7 3 4.2 4.4.1.4.7.6 1 .3 2.4-1.9 4.3-4.2 5.6-6.9.1-.2.1-.5-.1-.7-1-1.1-2.1-1.7-3.6-2 0 0-.1.1-.1.1v-3.7c3.1-1.9 5.4-5.1 6.1-8.9zm-24.7 0s0-.1.1-.1c.3-.2.5-.5.5-.8v-10c0-.3-.2-.6-.4-.8.1-.2.1-.5.2-.8.6-2 2.5-3.4 4.7-3.4 4.8-.1 7-2.1 8-3.5.9 2.3 3.4 5.9 9.5 8.1.1 0 .2.1.3.2v.1 10c0 .3.2.6.5.8 0 0 0 .1.1.1-.8 3.7-3.3 7-7.1 8.6-7 2.8-14.9-1-16.4-8.5z"/><path d="m18.3 30.3v-9.2c-.1 0-.2 0-.3.1v-1.9c0-9.3 7.5-16.8 16.8-16.8s16.9 7.6 16.9 16.9v1.9c-.1 0-.2 0-.3-.1v9.2c2.3-.2 4.1-2.2 4.1-4.6 0-1.7-1-3.3-2.4-4v-2.4c0-10.2-8.2-18.4-18.3-18.4s-18.3 8.2-18.3 18.3v2.4c-1.4.8-2.4 2.3-2.4 4 0 2.4 1.8 4.4 4.2 4.6z"/></g></svg>