<svg id="Layer_1" enable-background="new 0 0 70 70" height="512" viewBox="0 0 70 70" width="512" xmlns="http://www.w3.org/2000/svg"><g fill="rgb(0,0,0)"><path d="m49 40.4c-.4.2-.6.7-.4 1.1s.7.6 1.1.4c3.9-1.9 6.8-4.7 8.5-8.5.2-.4 0-.9-.4-1-.4-.2-.9 0-1 .4-1.6 3.4-4.3 5.9-7.8 7.6z"/><path d="m58.4 30.4c.4.1.9-.2 1-.6s.2-.7.2-1.1c.1-.4-.2-.8-.6-.9s-.8.2-.9.6c-.1.3-.1.7-.2 1-.2.4.1.8.5 1z"/><path d="m25.7 38c.2.3.5.7.8 1 1.3 1.6 2.5 2.3 2.9 2.6v2l-3 2.4c-.4.3-.5.9-.3 1.3l3.1 5.4c.3.4.8.6 1.2.5l5.4-1.9 5.4 1.9c.5.2 1 0 1.2-.5l3.1-5.4c.3-.4.2-1-.2-1.3l-3-2.4v-2c1.5-1 2.8-2.5 3.6-3.6 5.4-2 9-6.2 9-14.3.2-12.6-8.4-22.7-19-22.7s-19.2 10.1-19.2 22.6c0 8.1 3.6 12.4 9 14.4zm5.2 6.6c0-.3 0-1.5 0-2.2 1.6.8 3.3 1.2 5 1.2s3.3-.4 4.9-1.2v2.2l-4.9 5.2zm5-2.5c-5.9 0-10.3-5.7-12.1-11.4-.1-.3-.3-.5-.6-.5-1-.2-2.2-1.5-2.5-3.8-.4-2.4.5-4.3 1.5-4.5.4 0 .7-.3.8-.7s.2-.9.3-1.3c6.6.4 12.7-2.7 17.4-7.5 1.5 3.4 4.1 7.3 8.2 8.7v.1c.1.4.4.7.8.7h.1c1.1.2 1.9 2.1 1.5 4.5-.4 2.3-1.6 3.6-2.5 3.8-.3 0-.5.3-.6.5-2 5.7-6.5 11.4-12.3 11.4zm-11.2-32c1.2-1.4 2.5-2.6 4-3.6.4-.2.9-.1 1.1.3s.1.9-.3 1.1c-1.3.8-2.6 1.9-3.6 3.2-.3.3-.8.4-1.1.1s-.4-.8-.1-1.1zm-2 3c.1-.2.2-.4.4-.6.2-.4.7-.5 1.1-.3s.5.7.3 1.1c-.1.2-.2.4-.3.6-.2.4-.6.5-1.1.3-.4-.3-.6-.8-.4-1.1z"/><path d="m16 45.4c.4-.2.8-.4 1.3-.6.4-.2.6-.7.4-1-.2-.4-.7-.6-1-.4-.5.2-.9.5-1.4.7-.4.2-.5.7-.3 1.1.1.2.6.4 1 .2z"/><path d="m12.7 46.7c-.3-.3-.8-.3-1.1 0-3.8 3.5-5.9 8.5-5.9 13.6 0 .4.4.8.8.8s.8-.4.8-.8c0-4.7 2-9.3 5.4-12.5.3-.3.3-.8 0-1.1z"/><path d="m37.9 35.3c-1.1 1.1-3 1.1-4.1 0-.3-.3-.8-.3-1.1 0s-.3.8 0 1.1c.9.9 2 1.3 3.2 1.3 1.1 0 2.3-.4 3.2-1.3.3-.3.3-.8 0-1.1-.4-.3-.9-.3-1.2 0z"/><path d="m29.7 25.5c-1 0-1.9.8-1.9 1.9 0 1 .8 1.9 1.9 1.9 1 0 1.9-.8 1.9-1.9-.1-1.1-.9-1.9-1.9-1.9z"/><path d="m42.1 25.5c-1 0-1.9.8-1.9 1.9 0 1 .8 1.9 1.9 1.9 1 0 1.9-.8 1.9-1.9s-.9-1.9-1.9-1.9z"/><path d="m32.5 22.6c-2.3-1.7-4.8-.7-5.8 0-.4.3-.4.8-.2 1.1.3.3.8.4 1.1.2 0 0 1.9-1.4 3.9 0 .1.1.3.1.5.1s.5-.1.6-.3c.4-.4.3-.8-.1-1.1z"/><path d="m39.2 22.6c-.4.3-.4.8-.2 1.1.3.3.8.4 1.1.2 0 0 1.9-1.4 3.9 0 .1.1.3.1.5.1s.5-.1.6-.3c.3-.4.2-.8-.2-1.1-2.2-1.7-4.7-.7-5.7 0z"/><path d="m35.9 32.6c.4 0 .8-.4.8-.8v-2.2c0-.4-.4-.8-.8-.8s-.8.4-.8.8v2.2c0 .4.3.8.8.8z"/><path d="m63.5 67.4h-2.5v-7.2c0-7.6-6.1-13.7-13.7-13.7 0 .5-.1 1-.4 1.4l-3.1 5.4c-.1.2-.2.4-.4.5l4 13.5h-1.7l-3.8-12.8c-.1 0-.3 0-.4 0-.3 0-.6-.1-.9-.1l-4.1-1.4v5l2.6 9.3h-1.6l-1.7-6.3-1.7 6.3h-1.6l2.6-9.3v-5l-4.1 1.6c-.3.1-.6.1-.9.1-.1 0-.3 0-.4 0l-3.8 12.8h-1.7l4-13.5c-.2-.1-.3-.3-.4-.5l-3.1-5.5c-.3-.4-.4-.9-.3-1.4-7.5 0-13.7 6.1-13.7 13.7v7.2h-2.5c-.4 0-.8.4-.8.8s.4.7.8.7h55.3c.4 0 .8-.4.8-.8s-.3-.8-.8-.8z"/></g></svg>