<svg id="Layer_1" enable-background="new 0 0 70 70" height="512" viewBox="0 0 70 70" width="512" xmlns="http://www.w3.org/2000/svg"><g fill="rgb(0,0,0)"><path d="m55.4 17.6c.1.4.4.6.7.6h.1c.4-.1.7-.5.6-.9-.8-4.9-3.3-9.4-7.3-13-.3-.3-.8-.2-1.1.1s-.2.8.1 1.1c3.9 3.3 6.1 7.6 6.9 12.1z"/><path d="m45.4 3.2c.3.2.6.3.8.5.1.1.3.1.4.1.2 0 .5-.1.6-.3.2-.3.1-.8-.2-1s-.6-.4-.9-.6c-.4-.2-.8-.1-1 .3s0 .8.3 1z"/><path d="m14.8 39.8c0 1.5 1.2 2.8 2.8 2.8h11c.4.2.6.3.7.4v1.3l-2.7 2.1c-.3.2-.4.7-.2 1l2.9 5c.2.3.6.5.9.3l5.2-1.8 5.2 1.8c.4.1.7 0 .9-.3l2.9-5c.2-.3.1-.8-.2-1l-2.7-2.1v-1.3c.2-.1.4-.2.7-.4h11c1.5 0 2.8-1.2 2.8-2.8 0-1.5-1.2-2.8-2.8-2.8 1.5 0 2.8-1.2 2.8-2.8 0-1.5-1.2-2.8-2.8-2.8 1.5 0 2.8-1.3 2.8-2.8s-1.2-2.8-2.8-2.8h-.9v-4.8c0-9.2-7.2-16.8-16.2-17.4v10.4l-.4-.2c-.2-.2-.5-.2-.8 0l-.1.2v-10.3c-9.5.1-17.1 7.9-17.1 17.4v4.8c-.8 0-1.5.3-2 .8s-.8 1.2-.8 2c0 1.5 1.2 2.8 2.8 2.8-.8 0-1.5.3-2 .8s-.8 1.2-.8 2c0 1.5 1.2 2.8 2.8 2.8-.8 0-1.5.3-2 .8-.6.4-.9 1.1-.9 1.9zm20.7-24.5 9.6 5.8c1.3.8 2.1 2.2 2.1 3.7v7.2c0 4.2-2.6 8.2-6.7 10-7.6 3.4-16.6-1.8-16.6-10v-7.2c0-1.5.8-2.9 2.1-3.7l9.3-5.6zm-4.7 30.1v-1.8c1.5.5 3.1.8 4.7.8s3.2-.3 4.7-.8v1.8l-4.7 4.9zm20.6-17.2c0 1.7-1.2 3-2.8 3.4v-6.7c1.6.2 2.8 1.6 2.8 3.3zm-29.1-3.4v6.7c-1.5-.3-2.7-1.7-2.7-3.3s1.2-3 2.7-3.4z"/><path d="m11.6 49.7c.2 0 .4-.1.6-.3s.3-.4.5-.6c.3-.3.3-.8 0-1.1s-.8-.3-1.1 0c-.2.2-.4.4-.5.6-.3.3-.2.8.1 1.1.1.3.2.3.4.3z"/><path d="m8.4 59.9c0-2.9.8-5.8 2.3-8.3.2-.4.1-.8-.3-1s-.8-.1-1 .3c-1.6 2.7-2.5 5.9-2.5 9.1 0 .4.3.8.8.8s.7-.5.7-.9z"/><path d="m32.5 37.5c.8.8 1.9 1.2 3 1.2s2.2-.4 3-1.2c.3-.3.3-.8 0-1.1s-.8-.3-1.1 0c-1.1 1.1-2.8 1.1-3.9 0-.3-.3-.8-.3-1.1 0s-.2.8.1 1.1z"/><path d="m35.5 33.8c.4 0 .8-.3.8-.8v-2c0-.4-.3-.8-.8-.8s-.8.3-.8.8v2.1c0 .4.4.7.8.7z"/><path d="m39.1 28.9c.2 0 .4-.1.5-.2 1-.9 2.5-1 3.4 0 .3.3.8.3 1.1 0s.3-.8 0-1.1c-1.5-1.5-4-1.5-5.6 0-.3.3-.3.8 0 1.1.3.2.4.2.6.2z"/><path d="m27.3 28.9c.2 0 .4-.1.5-.2.5-.5 1.1-.7 1.7-.7.6 0 1.3.3 1.7.7.3.3.8.3 1.1 0s.3-.8 0-1.1c-.7-.7-1.7-1.1-2.8-1.1-1.1 0-2 .4-2.8 1.2-.3.3-.3.8 0 1.1.3.1.5.1.6.1z"/><path d="m62.4 66.7h-2.3v-6.8c0-7.6-6.2-13.7-13.7-13.7h-.4c.3.6.2 1.4-.1 2-3.1 5.3-3 5.2-3.2 5.4 4.9 16.4 3.7 12.4 3.9 13.1h-1.6l-3.6-12.4c-.1 0-.2 0-.3 0-.3 0-.5 0-.8-.1l-3.9-1.4v5l2.5 8.8h-1.6l-1.7-5.9-1.6 5.9h-1.6l2.5-8.8v-5l-3.9 1.4c-.4.1-.8.2-1.1.1l-3.6 12.4h-1.6l3.9-13.1c-.1-.1-.2-.2-.3-.4l-2.9-5c-.4-.6-.4-1.4-.1-2h-.5c-7.6 0-13.7 6.2-13.7 13.7v6.8h-2.5c-.4 0-.8.3-.8.8s.3.8.8.8h53.8c.4 0 .8-.3.8-.8s-.4-.8-.8-.8zm-7.8-9.2c0-.4.3-.8.8-.8.4 0 .8.3.8.8v.7c0 .4-.3.8-.8.8-.4 0-.8-.3-.8-.8zm0 3c0-.4.3-.8.8-.8.4 0 .8.3.8.8v3.8c0 .4-.3.8-.8.8-.4 0-.8-.3-.8-.8z"/></g></svg>